<svg xmlns="http://www.w3.org/2000/svg" width="155.555" height="150" viewBox="0 0 155.555 150"><defs><style>.a{fill:#87c528;}.b,.e{fill:#fff;}.c{fill:#1d8caf;}.d{fill:#147c9c;}.e{stroke:rgba(0,0,0,0);stroke-miterlimit:10;}.f{fill:#054f56;}.g{fill:#202324;}.h{fill:#2c9cd6;}.i{fill:#fcfefe;}</style></defs><g transform="translate(-265.462)"><g transform="translate(269.628 137.5)"><path class="a" d="M419.417,234.7H272.2a13.452,13.452,0,0,0,9.981-4.578l3.021-3.344a13.452,13.452,0,0,1,9.981-4.578H396.433a13.452,13.452,0,0,1,9.981,4.578l3.021,3.344A13.452,13.452,0,0,0,419.417,234.7Z" transform="translate(-272.195 -222.2)"/></g><g transform="translate(330.739 138.889)"><rect class="b" width="25" height="11.111"/></g><g transform="translate(273.643 0)"><circle class="c" cx="69.444" cy="69.444" r="69.444" transform="translate(0)"/></g><g transform="translate(289.615 15.972)"><circle class="d" cx="53.472" cy="53.472" r="53.472" transform="translate(0 0)"/></g><g transform="translate(386.295 25)"><path class="b" d="M463.506,41.789a1.389,1.389,0,1,1-1.388-1.389A1.388,1.388,0,0,1,463.506,41.789Z" transform="translate(-460.728 -40.4)"/></g><g transform="translate(322.406 11.111)"><path class="b" d="M360.262,19.345a1.389,1.389,0,1,1-1.389-1.389A1.388,1.388,0,0,1,360.262,19.345Z" transform="translate(-357.484 -17.956)"/></g><g transform="translate(387.683 50)"><path class="b" d="M465.749,82.189a1.389,1.389,0,1,1-1.388-1.389A1.388,1.388,0,0,1,465.749,82.189Z" transform="translate(-462.971 -80.8)"/></g><g transform="translate(284.906 56.944)"><path class="b" d="M299.662,93.411a1.389,1.389,0,1,1-1.389-1.389A1.388,1.388,0,0,1,299.662,93.411Z" transform="translate(-296.884 -92.022)"/></g><g transform="translate(290.462 34.722)"><path class="b" d="M308.639,57.5a1.389,1.389,0,1,1-1.388-1.389A1.388,1.388,0,0,1,308.639,57.5Z" transform="translate(-305.862 -56.111)"/></g><g transform="translate(398.794 56.944)"><path class="b" d="M483.7,93.411a1.389,1.389,0,1,1-1.388-1.389A1.388,1.388,0,0,1,483.7,93.411Z" transform="translate(-480.927 -92.022)"/></g><g transform="translate(405.044 23.611)"><path class="b" d="M492.416,38.85a.695.695,0,1,1-.694-.694A.694.694,0,0,1,492.416,38.85Z" transform="translate(-491.027 -38.156)"/></g><g transform="translate(340.462 13.194)"><path class="b" d="M388.051,22.016a.694.694,0,1,1-.694-.694A.694.694,0,0,1,388.051,22.016Z" transform="translate(-386.662 -21.322)"/></g><g transform="translate(348.1 6.944)"><path class="b" d="M400.394,11.916a.695.695,0,1,1-.694-.694A.694.694,0,0,1,400.394,11.916Z" transform="translate(-399.005 -11.222)"/></g><g transform="translate(287.684 17.361)"><path class="b" d="M302.762,28.75a.694.694,0,1,1-.694-.694A.694.694,0,0,1,302.762,28.75Z" transform="translate(-301.373 -28.056)"/></g><g transform="translate(411.295 52.084)"><path class="b" d="M502.517,84.861a.695.695,0,1,1-.694-.694A.694.694,0,0,1,502.517,84.861Z" transform="translate(-501.128 -84.167)"/></g><g transform="translate(278.656 37.5)"><path class="b" d="M288.172,61.294a.695.695,0,1,1-.694-.694A.694.694,0,0,1,288.172,61.294Z" transform="translate(-286.783 -60.6)"/></g><g transform="translate(416.156 65.278)"><path class="b" d="M510.372,106.183a.694.694,0,1,1-.694-.694A.693.693,0,0,1,510.372,106.183Z" transform="translate(-508.983 -105.489)"/></g><g transform="translate(393.933 70.834)"><path class="b" d="M474.461,115.161a.694.694,0,1,1-.694-.694A.694.694,0,0,1,474.461,115.161Z" transform="translate(-473.072 -114.467)"/></g><g transform="translate(404.351 74.306)"><path class="b" d="M491.295,120.772a.694.694,0,1,1-.694-.694A.694.694,0,0,1,491.295,120.772Z" transform="translate(-489.906 -120.078)"/></g><g transform="translate(279.351 64.584)"><path class="b" d="M289.295,105.061a.694.694,0,1,1-.694-.694A.694.694,0,0,1,289.295,105.061Z" transform="translate(-287.906 -104.367)"/></g><g transform="translate(296.711 44.444)"><path class="b" d="M317.35,72.516a.694.694,0,1,1-.694-.694A.694.694,0,0,1,317.35,72.516Z" transform="translate(-315.961 -71.822)"/></g><g transform="translate(298.795 31.25)"><path class="b" d="M320.717,51.194a.695.695,0,1,1-.694-.694A.694.694,0,0,1,320.717,51.194Z" transform="translate(-319.328 -50.5)"/></g><g transform="translate(370.322 16.666)"><path class="b" d="M436.305,27.628a.695.695,0,1,1-.694-.695A.694.694,0,0,1,436.305,27.628Z" transform="translate(-434.916 -26.933)"/></g><g transform="translate(312.684 33.334)"><path class="b" d="M343.162,54.561a.694.694,0,1,1-.694-.694A.694.694,0,0,1,343.162,54.561Z" transform="translate(-341.773 -53.867)"/></g><g transform="translate(355.045 11.806)"><path class="e" d="M1.389,3.472a.7.7,0,0,0-.7-.694.695.695,0,0,1,0-1.39.7.7,0,0,0,.7-.694.694.694,0,0,1,1.389,0,.7.7,0,0,0,.694.694.695.695,0,1,1,0,1.39.7.7,0,0,0-.694.694.694.694,0,1,1-1.389,0Z" transform="translate(0 0)"/></g><g transform="translate(286.295 69.444)"><circle class="b" cx="1.389" cy="1.389" r="1.389"/></g><g transform="translate(303.656 6.25)"><path class="e" d="M4.166,9.028A3.476,3.476,0,0,0,.694,5.555a.694.694,0,0,1,0-1.389A3.476,3.476,0,0,0,4.166.694a.694.694,0,0,1,1.389,0A3.476,3.476,0,0,0,9.028,4.166a.694.694,0,0,1,0,1.389A3.476,3.476,0,0,0,5.555,9.028a.694.694,0,0,1-1.389,0Z" transform="translate(0 0)"/></g><g transform="translate(301.573 29.166)"><path class="b" d="M406.617,102.156H326.062v-12.5a40.277,40.277,0,0,1,40.277-40.278h0a40.278,40.278,0,0,1,40.278,40.278Z" transform="translate(-324.673 -47.989)"/><path class="f" d="M405.761,102.689H325.206a1.389,1.389,0,0,1-1.389-1.389V88.8a41.667,41.667,0,1,1,83.334,0v12.5A1.388,1.388,0,0,1,405.761,102.689Zm-79.166-2.778h77.778V88.8a38.889,38.889,0,1,0-77.778,0Z" transform="translate(-323.817 -47.133)"/></g><path class="b" d="M328.839,141.611h75a9.177,9.177,0,0,1,1.541-5.089l1.237-1.855H326.062l1.236,1.855a9.173,9.173,0,0,1,1.541,5.089Z" transform="translate(-23.1 -51.333)"/><g transform="translate(301.573 81.944)"><rect class="b" width="75" height="38.889" transform="translate(4.167 8.333)"/><path class="f" d="M406.986,133.156a1.388,1.388,0,0,0-1.225-.734H325.206a1.389,1.389,0,0,0-1.156,2.16l1.237,1.855a7.764,7.764,0,0,1,1.308,4.319v38.889a1.389,1.389,0,0,0,1.389,1.389h75a1.388,1.388,0,0,0,1.389-1.389V140.756a7.759,7.759,0,0,1,1.308-4.319l1.237-1.855A1.39,1.39,0,0,0,406.986,133.156Zm-3.812,2.044a10.509,10.509,0,0,0-1.488,4.166h-72.4a10.538,10.538,0,0,0-1.488-4.166Zm-1.579,43.056H329.373V142.144h72.222Z" transform="translate(-323.817 -132.422)"/></g><g transform="translate(301.573 127.778)"><rect class="b" width="80.556" height="8.333" transform="translate(1.389 1.389)"/><path class="f" d="M405.761,217.6H325.206a1.389,1.389,0,0,1-1.389-1.389v-8.334a1.389,1.389,0,0,1,1.389-1.389h80.555a1.388,1.388,0,0,1,1.389,1.389v8.334A1.388,1.388,0,0,1,405.761,217.6Zm-79.166-2.777h77.778v-5.556H326.595Z" transform="translate(-323.817 -206.489)"/></g><g transform="translate(330.739 108.334)"><rect class="g" width="22.222" height="27.778" transform="translate(1.389 1.389)"/><path class="f" d="M394.561,205.622H372.339a1.389,1.389,0,0,1-1.389-1.389V176.456a1.389,1.389,0,0,1,1.389-1.389h22.222a1.388,1.388,0,0,1,1.389,1.389v27.778A1.388,1.388,0,0,1,394.561,205.622Zm-20.834-2.777h19.445v-25H373.728Z" transform="translate(-370.95 -175.067)"/></g><g transform="translate(339.767 97.916)"><path class="f" d="M389.011,165.178a3.472,3.472,0,1,1,3.473-3.473A3.477,3.477,0,0,1,389.011,165.178Zm0-5.556a2.083,2.083,0,1,0,2.084,2.083A2.085,2.085,0,0,0,389.011,159.622Z" transform="translate(-385.539 -158.233)"/></g><g transform="translate(382.128 136.111)"><path class="f" d="M491.495,233.845h-3.968a15.178,15.178,0,0,1-10.8-4.475l-2.976-2.976a12.422,12.422,0,0,0-8.84-3.661h-9.524a1.389,1.389,0,1,1,0-2.777h9.524a15.178,15.178,0,0,1,10.8,4.474l2.976,2.976a12.422,12.422,0,0,0,8.84,3.661h3.968a1.389,1.389,0,0,1,0,2.778Z" transform="translate(-453.995 -219.956)"/></g><g transform="translate(265.462 136.111)"><path class="f" d="M270.82,233.845h-3.969a1.389,1.389,0,0,1,0-2.778h3.969a12.421,12.421,0,0,0,8.839-3.661l2.975-2.976a15.181,15.181,0,0,1,10.8-4.474h9.525a1.389,1.389,0,1,1,0,2.777h-9.525a12.421,12.421,0,0,0-8.839,3.661l-2.976,2.976A15.179,15.179,0,0,1,270.82,233.845Z" transform="translate(-265.462 -219.956)"/></g><rect class="h" width="11.111" height="11.111" transform="translate(312.684 118.056)"/><path class="f" d="M352.028,188.533H340.917a1.389,1.389,0,0,0-1.389,1.389v11.111a1.389,1.389,0,0,0,1.389,1.389h11.111a1.389,1.389,0,0,0,1.389-1.389V189.922A1.389,1.389,0,0,0,352.028,188.533Zm-9.722,11.111v-8.334h3.472v8.334Zm8.334,0h-3.472v-8.334h3.472Z" transform="translate(-28.233 -71.867)"/><path class="f" d="M395.095,219.956a1.388,1.388,0,0,0-1.389,1.389v3.472H371.484v-3.472a1.389,1.389,0,0,0-2.778,0v11.111a1.389,1.389,0,0,0,2.778,0v-.695h22.222v.695a1.389,1.389,0,0,0,2.778,0V221.345A1.388,1.388,0,0,0,395.095,219.956Zm-1.389,6.25v1.389H371.484v-1.389Zm-22.222,4.166v-1.389h22.222v1.389Z" transform="translate(-39.355 -83.845)"/><rect class="h" width="11.111" height="11.111" transform="translate(362.684 118.056)"/><path class="f" d="M432.828,188.533H421.717a1.388,1.388,0,0,0-1.389,1.389v11.111a1.388,1.388,0,0,0,1.389,1.389h11.111a1.388,1.388,0,0,0,1.389-1.389V189.922A1.388,1.388,0,0,0,432.828,188.533Zm-9.722,11.111v-8.334h3.472v8.334Zm8.334,0h-3.472v-8.334h3.472Z" transform="translate(-59.033 -71.867)"/><g transform="translate(359.906 20.834)"><path class="b" d="M439.772,40.077V35.911H420.328V92.855h19.444V88.689h0a7.334,7.334,0,0,1-5.555-7.116V47.193a7.335,7.335,0,0,1,5.555-7.116Z" transform="translate(-418.939 -34.522)"/><path class="f" d="M438.917,93.389H419.473A1.388,1.388,0,0,1,418.084,92V35.056a1.388,1.388,0,0,1,1.389-1.389h19.444a1.389,1.389,0,0,1,1.389,1.389v4.166a1.389,1.389,0,0,1-1.053,1.348,5.937,5.937,0,0,0-4.5,5.768V80.718a5.937,5.937,0,0,0,4.5,5.767,1.39,1.39,0,0,1,1.053,1.348V92A1.388,1.388,0,0,1,438.917,93.389Zm-18.055-2.778h16.667V88.846a8.71,8.71,0,0,1-5.556-8.128V46.338a8.711,8.711,0,0,1,5.556-8.129V36.445H420.862Zm18.055-51.389h0Z" transform="translate(-418.084 -33.667)"/></g><g transform="translate(304.351 20.834)"><path class="b" d="M330.55,88.689v4.166h19.445V35.911H330.55v4.166h0a7.335,7.335,0,0,1,5.556,7.116v34.38a7.334,7.334,0,0,1-5.556,7.116Z" transform="translate(-329.161 -34.522)"/><path class="f" d="M349.139,93.389H329.695A1.389,1.389,0,0,1,328.306,92V87.833a1.389,1.389,0,0,1,1.052-1.348,5.937,5.937,0,0,0,4.5-5.767V46.338a5.937,5.937,0,0,0-4.5-5.768,1.388,1.388,0,0,1-1.052-1.348V35.056a1.389,1.389,0,0,1,1.389-1.389h19.445a1.389,1.389,0,0,1,1.389,1.389V92A1.389,1.389,0,0,1,349.139,93.389Zm-18.056-2.778H347.75V36.445H331.084v1.764a8.71,8.71,0,0,1,5.556,8.129V80.718a8.71,8.71,0,0,1-5.556,8.128Z" transform="translate(-328.306 -33.667)"/></g><path class="f" d="M406.828,125.689H320.717a1.389,1.389,0,1,0,0,2.778H335.3v2.778a.695.695,0,0,0,1.389,0v-2.778h12.5v2.778a.694.694,0,1,0,1.389,0v-2.778h12.5v2.778a.695.695,0,0,0,1.389,0v-2.778h12.5v2.778a.694.694,0,0,0,1.389,0v-2.778h12.5v2.778a.695.695,0,0,0,1.389,0v-2.778h14.583a1.389,1.389,0,1,0,0-2.778Z" transform="translate(-20.533 -47.911)"/><g transform="translate(323.795 36.111)"><path class="f" d="M379.172,97.245A19.444,19.444,0,1,1,398.617,77.8,19.466,19.466,0,0,1,379.172,97.245Zm0-36.111A16.667,16.667,0,1,0,395.839,77.8,16.686,16.686,0,0,0,379.172,61.133Z" transform="translate(-359.728 -58.356)"/></g><g transform="translate(330.045 42.361)"><circle class="h" cx="12.5" cy="12.5" r="12.5" transform="translate(0.695 0.694)"/><path class="f" d="M383.022,94.845A13.194,13.194,0,1,1,396.217,81.65,13.209,13.209,0,0,1,383.022,94.845Zm0-25A11.806,11.806,0,1,0,394.828,81.65,11.819,11.819,0,0,0,383.022,69.845Z" transform="translate(-369.828 -68.456)"/></g><g transform="translate(335.326 46.528)"><path class="b" d="M379.057,80.745a.7.7,0,0,1-.6-1.043,9.061,9.061,0,0,1,7.819-4.513.694.694,0,1,1,0,1.389,7.666,7.666,0,0,0-6.617,3.821A.7.7,0,0,1,379.057,80.745Z" transform="translate(-378.363 -75.189)"/></g><g transform="translate(334.212 53.472)"><path class="b" d="M377.256,89.189a.694.694,0,0,1-.694-.694,9.164,9.164,0,0,1,.124-1.5.695.695,0,1,1,1.37.231,7.658,7.658,0,0,0-.106,1.274A.694.694,0,0,1,377.256,89.189Z" transform="translate(-376.562 -86.411)"/></g><g transform="translate(323.795 27.778)"><path class="f" d="M397.228,47.667H361.117a1.389,1.389,0,1,1,0-2.778h36.111a1.389,1.389,0,1,1,0,2.778Z" transform="translate(-359.728 -44.889)"/></g><path class="i" d="M375.439,179.588l6.2,5.256V195.4c-.244.345-.866.035-.889.846-.025.892.631.68.918.922v7.406h-6.229Z" transform="translate(-41.922 -68.457)"/><path class="i" d="M403.052,204.543h-6.087v-7.406c.268-.439,2.006-.794.063-1.757-.1-.051-.153-.5-.154-.759-.009-5-.006-9.853-.006-9.853l6.181-5.256Z" transform="translate(-50.09 -68.427)"/></g></svg>