<svg xmlns="http://www.w3.org/2000/svg" xmlns:xlink="http://www.w3.org/1999/xlink" width="1920" height="1080" viewBox="0 0 1920 1080"><defs><style>.a{fill:#fff;}.b{clip-path:url(#a);}.c{fill:url(#b);}.d{fill:url(#c);}.e{fill:url(#d);}.f{fill:url(#e);}.g{fill:url(#f);}.h{fill:url(#g);}.i{fill:url(#h);}.j{fill:url(#i);}.k{fill:url(#j);}.l{fill:url(#k);}.m{fill:url(#l);}.n{fill:url(#m);}.o{fill:url(#n);}.p{fill:url(#o);}.q{fill:url(#p);}.r{fill:url(#q);}.s{fill:url(#r);}.t{fill:url(#s);}.u{fill:url(#t);}.v{fill:url(#u);}.w{fill:url(#v);}.x{fill:url(#w);}</style><clipPath id="a"><rect class="a" width="1920" height="1080"/></clipPath><linearGradient id="b" x1="-1.715" y1="0.48" x2="2.146" y2="0.48" gradientUnits="objectBoundingBox"><stop offset="0" stop-color="#fff" stop-opacity="0.302"/><stop offset="1" stop-color="#f2f2f2" stop-opacity="0.302"/></linearGradient><linearGradient id="c" x1="-1.711" y1="0.524" x2="2.024" y2="0.524" gradientUnits="objectBoundingBox"><stop offset="0" stop-color="#fff" stop-opacity="0.333"/><stop offset="1" stop-color="#f2f2f2" stop-opacity="0.333"/></linearGradient><linearGradient id="d" x1="-1.678" y1="0.565" x2="1.915" y2="0.565" gradientUnits="objectBoundingBox"><stop offset="0" stop-color="#fff" stop-opacity="0.369"/><stop offset="1" stop-color="#f2f2f2" stop-opacity="0.369"/></linearGradient><linearGradient id="e" x1="-1.614" y1="0.602" x2="1.818" y2="0.602" gradientUnits="objectBoundingBox"><stop offset="0" stop-color="#fff" stop-opacity="0.4"/><stop offset="1" stop-color="#f2f2f2" stop-opacity="0.4"/></linearGradient><linearGradient id="f" x1="-1.522" y1="0.637" x2="1.733" y2="0.637" gradientUnits="objectBoundingBox"><stop offset="0" stop-color="#fff" stop-opacity="0.435"/><stop offset="1" stop-color="#f2f2f2" stop-opacity="0.435"/></linearGradient><linearGradient id="g" x1="-1.402" y1="0.667" x2="1.657" y2="0.667" gradientUnits="objectBoundingBox"><stop offset="0" stop-color="#fff" stop-opacity="0.467"/><stop offset="1" stop-color="#f2f2f2" stop-opacity="0.467"/></linearGradient><linearGradient id="h" x1="-1.257" y1="0.693" x2="1.591" y2="0.693" gradientUnits="objectBoundingBox"><stop offset="0" stop-color="#fff" stop-opacity="0.502"/><stop offset="1" stop-color="#f2f2f2" stop-opacity="0.502"/></linearGradient><linearGradient id="i" x1="-1.088" y1="0.715" x2="1.531" y2="0.715" gradientUnits="objectBoundingBox"><stop offset="0" stop-color="#fff" stop-opacity="0.533"/><stop offset="1" stop-color="#f2f2f2" stop-opacity="0.533"/></linearGradient><linearGradient id="j" x1="-0.899" y1="0.731" x2="1.476" y2="0.731" gradientUnits="objectBoundingBox"><stop offset="0" stop-color="#fff" stop-opacity="0.569"/><stop offset="1" stop-color="#f2f2f2" stop-opacity="0.569"/></linearGradient><linearGradient id="k" x1="-0.693" y1="0.743" x2="1.423" y2="0.743" gradientUnits="objectBoundingBox"><stop offset="0" stop-color="#fff" stop-opacity="0.6"/><stop offset="1" stop-color="#f2f2f2" stop-opacity="0.6"/></linearGradient><linearGradient id="l" x1="-0.474" y1="0.75" x2="1.37" y2="0.75" gradientUnits="objectBoundingBox"><stop offset="0" stop-color="#fff" stop-opacity="0.635"/><stop offset="1" stop-color="#f2f2f2" stop-opacity="0.635"/></linearGradient><linearGradient id="m" x1="-0.245" y1="0.751" x2="1.314" y2="0.751" gradientUnits="objectBoundingBox"><stop offset="0" stop-color="#fff" stop-opacity="0.667"/><stop offset="1" stop-color="#f2f2f2" stop-opacity="0.667"/></linearGradient><linearGradient id="n" x1="-0.012" y1="0.747" x2="1.252" y2="0.747" gradientUnits="objectBoundingBox"><stop offset="0" stop-color="#fff" stop-opacity="0.702"/><stop offset="1" stop-color="#f2f2f2" stop-opacity="0.702"/></linearGradient><linearGradient id="o" x1="-0.002" y1="0.738" x2="1.429" y2="0.738" gradientUnits="objectBoundingBox"><stop offset="0" stop-color="#fff" stop-opacity="0.733"/><stop offset="1" stop-color="#f2f2f2" stop-opacity="0.733"/></linearGradient><linearGradient id="p" x1="-0.059" y1="0.724" x2="1.671" y2="0.724" gradientUnits="objectBoundingBox"><stop offset="0" stop-color="#fff" stop-opacity="0.769"/><stop offset="1" stop-color="#f2f2f2" stop-opacity="0.769"/></linearGradient><linearGradient id="q" x1="-0.124" y1="0.705" x2="1.905" y2="0.705" gradientUnits="objectBoundingBox"><stop offset="0" stop-color="#fff" stop-opacity="0.8"/><stop offset="1" stop-color="#f2f2f2" stop-opacity="0.8"/></linearGradient><linearGradient id="r" x1="-0.202" y1="0.681" x2="2.126" y2="0.681" gradientUnits="objectBoundingBox"><stop offset="0" stop-color="#fff" stop-opacity="0.835"/><stop offset="1" stop-color="#f2f2f2" stop-opacity="0.835"/></linearGradient><linearGradient id="s" x1="-0.296" y1="0.653" x2="2.33" y2="0.653" gradientUnits="objectBoundingBox"><stop offset="0" stop-color="#fff" stop-opacity="0.867"/><stop offset="1" stop-color="#f2f2f2" stop-opacity="0.867"/></linearGradient><linearGradient id="t" x1="-0.409" y1="0.621" x2="2.511" y2="0.621" gradientUnits="objectBoundingBox"><stop offset="0" stop-color="#fff" stop-opacity="0.902"/><stop offset="1" stop-color="#f2f2f2" stop-opacity="0.902"/></linearGradient><linearGradient id="u" x1="-0.543" y1="0.585" x2="2.666" y2="0.585" gradientUnits="objectBoundingBox"><stop offset="0" stop-color="#fff" stop-opacity="0.933"/><stop offset="1" stop-color="#f2f2f2" stop-opacity="0.933"/></linearGradient><linearGradient id="v" x1="-0.704" y1="0.546" x2="2.791" y2="0.546" gradientUnits="objectBoundingBox"><stop offset="0" stop-color="#fff" stop-opacity="0.965"/><stop offset="1" stop-color="#f2f2f2" stop-opacity="0.965"/></linearGradient><linearGradient id="w" x1="-0.892" y1="0.504" x2="2.882" y2="0.504" gradientUnits="objectBoundingBox"><stop offset="0" stop-color="#fff"/><stop offset="1" stop-color="#f2f2f2"/></linearGradient></defs><g class="b"><g transform="translate(1136.54 -2462.589) rotate(19)"><rect class="c" width="229" height="2560.094" transform="translate(-352.893 1661.791)"/><path class="d" d="M-24.5,1661.791c.02,24.572,0,2560.093,0,2560.093H-250.54V1661.791Z"/><path class="e" d="M74.9,1661.791c.04,49.145,0,2560.093,0,2560.093H-148.187V1661.791Z"/><path class="f" d="M174.3,1661.791c.059,73.717,0,2560.093,0,2560.093H-45.835V1661.791Z"/><path class="g" d="M273.7,1661.791c.079,98.29,0,2560.093,0,2560.093H56.518V1661.791Z"/><path class="h" d="M373.093,1661.791c.1,122.862,0,2560.093,0,2560.093H158.871V1661.791Z"/><path class="i" d="M472.491,1661.791c.118,147.434,0,2560.093,0,2560.093H261.223V1661.791Z"/><path class="j" d="M571.888,1661.791c.139,172.007,0,2560.093,0,2560.093H363.576V1661.791Z"/><path class="k" d="M671.285,1661.791c.159,196.579,0,2560.093,0,2560.093H465.929V1661.791Z"/><path class="l" d="M770.682,1661.791c.179,221.153,0,2560.093,0,2560.093h-202.4V1661.791Z"/><path class="m" d="M870.08,1661.791c.2,245.726,0,2560.093,0,2560.093H670.634V1661.791Z"/><path class="n" d="M969.477,1661.791c.218,270.3,0,2560.093,0,2560.093H772.987V1661.791Z"/><path class="o" d="M1068.874,1661.791c.238,294.87,0,2560.093,0,2560.093H875.339V1661.791Z"/><path class="p" d="M1168.272,1661.791c.257,319.443,0,2560.093,0,2560.093H977.692V1661.791Z"/><path class="q" d="M1267.669,1661.791c.278,344.015,0,2560.093,0,2560.093H1080.045V1661.791Z"/><path class="r" d="M1367.066,1661.791c.3,368.588,0,2560.093,0,2560.093H1182.4V1661.791Z"/><path class="s" d="M1466.464,1661.791c.317,393.16,0,2560.093,0,2560.093H1284.75V1661.791Z"/><path class="t" d="M1565.861,1661.791c.337,417.732,0,2560.093,0,2560.093H1387.1V1661.791Z"/><path class="u" d="M1665.258,1661.791c.357,442.3,0,2560.093,0,2560.093h-175.8V1661.791Z"/><path class="v" d="M1764.656,1661.791c.376,466.877,0,2560.093,0,2560.093H1591.808V1661.791Z"/><path class="w" d="M1864.053,1661.791c.4,491.45,0,2560.093,0,2560.093H1694.161V1661.791Z"/><path class="x" d="M1963.45,1661.791c.416,516.022,0,2560.093,0,2560.093H1796.514V1661.791Z"/></g></g></svg>