<svg xmlns="http://www.w3.org/2000/svg" width="15.43" height="16.163" viewBox="0 0 15.43 16.163"><defs><style>.a{fill:#1e1e1e;}</style></defs><path class="a" d="M2.316,12.725l1.576,2.8a.777.777,0,0,0,1.076.295l1.1-.651a6.328,6.328,0,0,0,1.493.9v1.291a.8.8,0,0,0,.788.808H11.5a.8.8,0,0,0,.788-.808V16.063a6.344,6.344,0,0,0,1.493-.9l1.1.651a.78.78,0,0,0,1.076-.295l1.576-2.8a.823.823,0,0,0-.288-1.1l-1.081-.641a6.607,6.607,0,0,0,.062-.9,6.365,6.365,0,0,0-.064-.9l1.081-.641a.821.821,0,0,0,.288-1.1l-1.576-2.8a.777.777,0,0,0-1.076-.295L13.781,5a6.3,6.3,0,0,0-1.492-.9V2.808A.8.8,0,0,0,11.5,2H8.348a.8.8,0,0,0-.788.808V4.1A6.344,6.344,0,0,0,6.067,5l-1.1-.651a.777.777,0,0,0-1.076.295l-1.576,2.8a.823.823,0,0,0,.288,1.1l1.081.641a6.358,6.358,0,0,0,0,1.8L2.6,11.621A.821.821,0,0,0,2.316,12.725ZM9.924,6.849a3.234,3.234,0,1,1-3.152,3.233A3.2,3.2,0,0,1,9.924,6.849Z" transform="translate(-2.21 -2)"/></svg>