<svg xmlns="http://www.w3.org/2000/svg" viewBox="0 0 438.95 86.92"><defs><style>.cls-1{fill:#fff;}</style></defs><title>AssLogo_whiteet 3</title><g id="Layer_2" data-name="Layer 2"><g id="Layer_1-2" data-name="Layer 1"><path class="cls-1" d="M131,34h3.39V61h16.93v3.13H131Z"/><path class="cls-1" d="M164.27,34V64.08h-3.39V34Z"/><path class="cls-1" d="M197,63.25a17,17,0,0,1-6.9,1.35,16.16,16.16,0,0,1-6.38-1.2,14.11,14.11,0,0,1-7.86-8.26,17.29,17.29,0,0,1-1.05-6,16.38,16.38,0,0,1,1.09-5.94,15.66,15.66,0,0,1,3.07-5,14.48,14.48,0,0,1,10.92-4.68,21.71,21.71,0,0,1,3.46.25,15.23,15.23,0,0,1,2.92.78,13.39,13.39,0,0,1,2.54,1.27,21.06,21.06,0,0,1,2.29,1.69l-2.19,2.58a16.09,16.09,0,0,0-1.8-1.4,12.32,12.32,0,0,0-2-1.07,12.83,12.83,0,0,0-2.41-.71,15.17,15.17,0,0,0-2.9-.26,10.7,10.7,0,0,0-4.6,1,11.17,11.17,0,0,0-3.61,2.67,12.45,12.45,0,0,0-2.36,3.94,13.48,13.48,0,0,0-.86,4.8,14.57,14.57,0,0,0,.84,5,11.79,11.79,0,0,0,2.38,4,10.85,10.85,0,0,0,3.74,2.62,12.19,12.19,0,0,0,4.94,1,13.31,13.31,0,0,0,4.86-.88,14.28,14.28,0,0,0,3.82-2.14V51.06h-9.15v-3h12.42V60A19.39,19.39,0,0,1,197,63.25Z"/><path class="cls-1" d="M216.18,50.55V64.08h-3.39V34h3.39V47.37h17.36V34h3.4V64.08h-3.4V50.55Z"/><path class="cls-1" d="M259.8,64.08h-3.4V37.14H246.3V34h23.6v3.14H259.8Z"/><path class="cls-1" d="M293.74,55.83h-.17l-11-16.07V64.08h-3.3V34h3.43l11,16.42,11-16.42h3.44V64.08h-3.4V39.72Z"/><path class="cls-1" d="M341.36,37.1H323V47.37h16.41v3.09H323V61h18.56v3.09h-22V34h21.75Z"/><path class="cls-1" d="M362.76,64.08h-3.4V37.14h-10.1V34h23.59v3.14H362.76Z"/><path class="cls-1" d="M404,37.1H385.66V47.37h16.42v3.09H385.66V61h18.56v3.09h-22V34H404Z"/><path class="cls-1" d="M434.78,64.08l-8.73-11.69h-8.59V64.08h-3.39V34H427a14.57,14.57,0,0,1,4.49.65,10.34,10.34,0,0,1,3.42,1.82,8.31,8.31,0,0,1,2.19,2.84,8.69,8.69,0,0,1,.77,3.68,8.92,8.92,0,0,1-.6,3.37,7.68,7.68,0,0,1-1.7,2.58,9.49,9.49,0,0,1-2.6,1.83,12,12,0,0,1-3.26,1L439,64.08Zm-2.33-25.37a9.05,9.05,0,0,0-5.68-1.57h-9.31V49.39h9.26a10.85,10.85,0,0,0,3.1-.43,7.67,7.67,0,0,0,2.46-1.23,5.72,5.72,0,0,0,1.62-2,5.88,5.88,0,0,0,.58-2.63A5.29,5.29,0,0,0,432.45,38.71Z"/><polygon class="cls-1" points="0.22 86.92 13.61 63.82 21.91 63.82 12.66 79.73 88.38 79.73 72.67 52.63 0 52.63 0 45.45 24.16 45.45 50.49 0 70.42 34.27 62.13 34.27 50.62 14.38 32.58 45.45 97.03 45.45 97.03 52.63 81.03 52.63 100.89 86.92 0.22 86.92"/></g></g></svg>