<svg width="402" height="329" viewBox="0 0 402 329" fill="none" xmlns="http://www.w3.org/2000/svg">
<g clip-path="url(#clip0)">
<path d="M67 327C104.003 327 134 319.837 134 311C134 302.163 104.003 295 67 295C29.9969 295 0 302.163 0 311C0 319.837 29.9969 327 67 327Z" fill="#E4F5FD"/>
<path d="M34.2413 140.469C-5.43244 138.235 -11.2412 90.0715 20.0368 71.9396C45.9764 56.8885 86.9906 65.1431 113.824 64.8844C153.827 64.4846 173.934 38.1217 208.387 24.1995C242.369 10.4654 259.208 22.6944 284.889 44.7301C308.194 64.7198 333.005 70.4815 359.815 81.323C384.602 91.3414 402.969 108.18 402.381 138.799C401.77 170.618 370.445 181.342 345.187 182.471C316.331 183.764 288.652 183.388 261.113 192.09C219.863 205.095 178.496 208.434 137.365 194.7C116.199 187.645 105.122 178.567 86.5202 166.056C72.2923 156.484 48.6103 141.292 34.2413 140.469Z" fill="#E4F5FD"/>
<path fill-rule="evenodd" clip-rule="evenodd" d="M75.4906 71.5866V85.603L50.915 71.422V58.558C52.1144 57.1 55.1482 57.3587 56.324 60.2983C59.4989 68.2001 62.0623 60.1102 66.6716 62.1562C71.6808 64.3668 68.6471 78.6653 75.4906 71.5866Z" fill="#F8F8F8"/>
<path fill-rule="evenodd" clip-rule="evenodd" d="M50.9386 79.3242L171.7 149.077V245.098L50.9386 175.392V79.3242Z" fill="white"/>
<path opacity="0.2" fill-rule="evenodd" clip-rule="evenodd" d="M171.7 190.349V245.121L50.9386 175.392V136.518C56.7709 137.67 63.8966 142.186 66.2249 156.743C70.3874 182.683 88.7074 135.813 109.309 144.279C129.91 152.745 114.506 192.536 136.565 200.838C152.957 207.023 161.329 192.348 171.7 190.349Z" fill="#7C8FBD"/>
<path opacity="0.5" fill-rule="evenodd" clip-rule="evenodd" d="M50.9386 152.722C50.9386 152.722 55.9713 141.433 63.4968 145.572C71.0224 149.711 64.6727 172.288 85.6737 172.57C106.698 172.829 109.661 154.039 125.112 159.33C142.491 165.303 129.91 204.225 150.793 204.225C159.612 204.225 166.385 205.118 171.7 207.023V245.121L50.9386 175.392V152.722Z" fill="#F7E057"/>
<path opacity="0.7" fill-rule="evenodd" clip-rule="evenodd" d="M171.7 225.719V245.121L50.9386 175.392V165.656C54.4192 164.692 58.0408 165.562 59.4989 172.076C62.6032 186.092 79.1829 184.093 85.6972 178.049C92.235 172.006 102.818 166.361 103.853 188.679C104.887 210.997 131.25 183.694 138.352 206.835C144.749 227.601 159.542 228.941 171.7 225.719Z" fill="#32ABE4"/>
<path fill-rule="evenodd" clip-rule="evenodd" d="M61.78 101.36C63.3791 102.277 64.6726 104.323 64.6726 105.922C64.6726 107.357 63.6378 107.944 62.2738 107.38V148.841H61.2861V106.816C59.9221 105.804 58.8873 104.017 58.8873 102.582C58.9108 100.983 60.2043 100.442 61.78 101.36Z" fill="#F1F7F2"/>
<path fill-rule="evenodd" clip-rule="evenodd" d="M67.3066 104.346L72.5275 107.356V109.05L67.3066 106.039V104.346ZM67.3066 107.168V108.862L70.1052 110.484V108.791L67.3066 107.168Z" fill="#475384"/>
<path fill-rule="evenodd" clip-rule="evenodd" d="M96.5386 129.721C98.1378 130.639 99.4313 132.685 99.4313 134.284C99.4313 135.718 98.3965 136.306 97.0325 135.742V177.203H96.0448V135.177C94.6808 134.166 93.646 132.379 93.646 130.944C93.646 129.345 94.9394 128.804 96.5386 129.721Z" fill="#EBE381"/>
<path fill-rule="evenodd" clip-rule="evenodd" d="M102.042 132.708L107.262 135.719V137.412L102.042 134.402V132.708ZM102.042 135.531V137.224L104.84 138.847V137.153L102.042 135.531Z" fill="#475384"/>
<path fill-rule="evenodd" clip-rule="evenodd" d="M156.531 166.573C158.13 167.49 159.424 169.536 159.424 171.135C159.424 172.57 158.389 173.158 157.025 172.593V214.055H156.037V172.006C154.673 170.994 153.639 169.207 153.639 167.772C153.662 166.197 154.932 165.632 156.531 166.573Z" fill="#F1F7F2"/>
<path fill-rule="evenodd" clip-rule="evenodd" d="M131.909 148.959L137.13 151.969V153.662L131.909 150.652V148.959ZM131.909 151.781V153.474L134.707 155.097V153.404L131.909 151.781Z" fill="#475384"/>
<path fill-rule="evenodd" clip-rule="evenodd" d="M45.6707 190.514C46.2586 184.87 46.7525 169.913 40.5674 169.207C33.7239 168.431 30.4785 178.896 30.6667 190.89C30.6667 190.89 30.3845 204.93 37.4632 204.812C42.2607 204.742 42.8016 198.157 42.6605 193.971C44.3302 193.195 45.5061 192.019 45.6707 190.514Z" fill="#37485F"/>
<path fill-rule="evenodd" clip-rule="evenodd" d="M100.49 199.873L105.781 198.627C105.781 198.627 108.485 202.202 107.474 206.458C107.474 206.458 103.947 206.341 101.43 205.612C102.324 202.813 100.537 199.85 100.537 199.85L100.49 199.873Z" fill="#A9A9A9"/>
<path fill-rule="evenodd" clip-rule="evenodd" d="M105.781 198.627L110.39 197.428C110.39 197.428 111.284 198.486 110.861 199.168C110.437 199.85 109.591 200.015 109.591 200.015C109.591 200.015 110.931 203.472 107.474 206.458C108.462 202.178 105.781 198.627 105.781 198.627Z" fill="#606060"/>
<path fill-rule="evenodd" clip-rule="evenodd" d="M78.4303 202.766C78.4303 202.766 82.5223 200.367 85.6972 200.297C88.872 200.226 100.56 199.874 100.56 199.874C100.56 199.874 102.441 202.531 101.454 205.635C101.454 205.635 85.1798 212.126 80.8761 210.715C76.5254 209.28 76.643 204.295 78.4303 202.766Z" fill="#A9A9A9"/>
<path fill-rule="evenodd" clip-rule="evenodd" d="M41.9079 300.81C41.9079 300.81 40.0971 301.421 39.4621 304.314C38.8272 307.23 39.321 309.723 39.321 309.723C39.321 309.723 43.3425 315.32 51.6441 312.639C62.321 309.205 64.2259 304.737 64.2259 304.737C64.2259 304.737 66.2249 297.282 57.0531 297.07C47.9049 296.906 41.9079 300.81 41.9079 300.81Z" fill="#313B7A"/>
<path fill-rule="evenodd" clip-rule="evenodd" d="M46.7525 297.823C43.0368 298.082 40.0031 299.893 40.0031 301.868C40.0031 303.843 43.0133 305.231 46.7525 304.972C50.4918 304.714 53.502 302.903 53.502 300.927C53.4785 298.952 50.4683 297.564 46.7525 297.823Z" fill="#475384"/>
<path fill-rule="evenodd" clip-rule="evenodd" d="M70.4344 305.396C70.4344 305.396 68.6236 306.008 67.9886 308.9C67.3537 311.816 67.8475 314.309 67.8475 314.309C67.8475 314.309 71.869 319.906 80.1706 317.225C90.8475 313.792 92.7524 309.324 92.7524 309.324C92.7524 309.324 94.7514 301.869 85.5796 301.657C76.4314 301.469 70.4344 305.396 70.4344 305.396Z" fill="#313B7A"/>
<path fill-rule="evenodd" clip-rule="evenodd" d="M76.0314 302.409C71.8924 302.668 68.5294 304.478 68.5294 306.454C68.5294 308.429 71.8924 309.817 76.0314 309.558C80.1705 309.3 83.5335 307.489 83.5335 305.513C83.5335 303.538 80.1705 302.15 76.0314 302.409Z" fill="#475384"/>
<path fill-rule="evenodd" clip-rule="evenodd" d="M71.8925 138.729C71.8925 138.729 74.2912 151.404 69.3996 159.118L63.5909 158.224L63.3557 165.938C63.3557 165.938 57.9467 170.124 50.233 165.938V157.448C53.3844 156.602 55.6655 156.86 58.5817 157.636C60.1808 154.861 60.6512 152.557 60.6512 149.546C57.0766 150.252 54.913 147.877 55.7831 144.937C56.5121 142.468 60.9804 141.409 61.78 145.078H62.9794C63.8731 144.279 65.3311 141.057 65.3311 140.469C67.8475 140.398 71.8925 138.729 71.8925 138.729Z" fill="#A9A9A9"/>
<path fill-rule="evenodd" clip-rule="evenodd" d="M63.5674 158.224L63.4733 161.352L60.0868 157.707L63.5674 158.224Z" fill="#606060"/>
<path fill-rule="evenodd" clip-rule="evenodd" d="M63.9671 163.68L77.4895 171.982C77.4895 171.982 74.3852 212.526 75.1143 224.402C75.1143 224.402 49.9743 232.492 37.957 220.098C37.957 220.098 32.6656 190.302 36.4048 171.488C36.4048 171.488 44.1185 165.961 48.869 164.033L50.233 160.646C55.7831 163.233 63.4967 161.376 63.4967 161.376L63.9671 163.68Z" fill="#5A98CD"/>
<path fill-rule="evenodd" clip-rule="evenodd" d="M48.869 164.033L50.233 160.646C55.7831 163.233 63.4968 161.376 63.4968 161.376L63.9436 163.492C63.9201 163.469 58.8404 168.078 48.869 164.033Z" fill="white"/>
<path fill-rule="evenodd" clip-rule="evenodd" d="M37.9335 220.099C37.9335 220.099 42.2842 267.51 40.2852 297.776C41.8373 298.882 46.3762 301.398 52.7494 298.858C54.1369 288.746 57.5939 261.536 57.2647 234.773C57.2177 231.834 57.0766 229.27 56.8179 227.013C50.0684 226.848 42.8956 225.225 37.9335 220.099Z" fill="#475384"/>
<path fill-rule="evenodd" clip-rule="evenodd" d="M41.0612 298.271C41.0142 298.976 40.9672 299.658 40.9201 300.34C40.5674 304.267 50.4211 305.232 50.7033 301.633C50.7033 301.633 50.7974 300.646 50.915 299.446C46.3056 300.716 42.8486 299.329 41.0612 298.271Z" fill="#A9A9A9"/>
<path fill-rule="evenodd" clip-rule="evenodd" d="M75.1144 224.426C75.1144 224.426 85.1092 255.069 81.8874 302.903C79.9589 305.161 72.1041 306.689 69.6113 301.704C69.6113 301.704 68.9999 264.335 57.5469 239.924C57.5469 239.924 53.0551 235.244 50.915 226.472C62.5091 228.471 75.1144 224.426 75.1144 224.426Z" fill="#7C8FBD"/>
<path fill-rule="evenodd" clip-rule="evenodd" d="M82.3107 273.647C82.6399 282.443 82.5929 292.226 81.8639 302.879C79.9355 305.137 72.0807 306.666 69.5878 301.68C69.5878 301.68 69.3527 287.099 66.366 270.19L67.4948 268.356C67.5183 268.332 75.2555 277.387 82.3107 273.647Z" fill="#475384"/>
<path fill-rule="evenodd" clip-rule="evenodd" d="M75.1144 224.426L75.1379 225.155C73.3741 226.048 70.7401 227.177 67.2596 228.165C70.3874 235.338 80.6645 262.571 76.3373 302.033C79.5591 302.15 81.3935 300.881 81.3935 300.881L81.6522 301.28C81.6287 301.28 77.1604 304.385 70.0817 300.763L70.2933 300.34C72.4099 301.421 74.2913 301.868 75.8669 302.009C80.1941 262.524 69.8935 235.314 66.8127 228.306C62.9089 229.388 58.0173 230.258 52.1379 230.446C51.6911 229.223 51.2678 227.906 50.915 226.472C56.23 227.389 61.7565 227.06 66.1778 226.401L66.3894 226.307L66.413 226.378C71.5162 225.578 75.1144 224.426 75.1144 224.426Z" fill="#475384"/>
<path fill-rule="evenodd" clip-rule="evenodd" d="M70.4344 302.785V305.795C70.4344 309.441 81.2054 308.359 81.2054 305.795V303.491C78.5244 305.09 73.0919 305.96 70.4344 302.785Z" fill="#A9A9A9"/>
<path fill-rule="evenodd" clip-rule="evenodd" d="M77.1604 176.286C76.596 184.14 75.4437 201.096 75.0909 213.373C64.1083 198.604 68.1533 177.509 68.1533 177.509L74.1032 177.344C75.185 176.944 76.1962 176.615 77.1604 176.286Z" fill="#37485F"/>
<path fill-rule="evenodd" clip-rule="evenodd" d="M68.0827 181.859C68.0827 181.859 66.6952 170.594 74.7146 170.43C80.8996 170.289 81.6757 186.821 83.9333 197.31C84.1685 198.415 84.4272 199.45 84.7094 200.391C85.2973 203.683 85.4149 208.645 81.3699 210.127C80.9937 210.221 80.5939 210.268 80.1706 210.315C73.6092 211.044 68.553 189.784 68.0827 181.859Z" fill="#F0F7FA"/>
<path fill-rule="evenodd" clip-rule="evenodd" d="M50.2096 157.449C50.2096 157.449 38.545 137.459 46.2351 135.648C45.1769 135.436 43.6482 134.801 43.0603 133.038L43.9069 132.755C44.2126 133.673 44.8476 134.19 45.5061 134.496C40.5439 125.7 61.3097 119.821 67.1185 125.677C73.0449 122.478 76.7841 127.041 77.0193 131.674C77.7718 128.804 76.1727 126.147 76.1727 126.147C79.0653 130.639 77.5367 133.908 76.3608 135.436C75.5847 137.13 74.1267 138.447 71.8925 138.823V138.776C70.9518 139.152 67.5653 140.446 65.3077 140.516C65.3077 140.563 65.3077 140.61 65.2842 140.657C65.2371 141.198 65.0019 143.174 64.6962 145.455C63.4263 145.525 62.3445 145.408 61.2157 145.22L61.2627 143.926C59.8517 141.786 56.3946 142.868 55.7596 145.008C54.8895 147.948 57.0531 150.323 60.6277 149.617C60.6277 152.627 60.1574 154.932 58.5582 157.707C55.6421 156.861 53.3609 156.602 50.2096 157.449Z" fill="#475384"/>
<path fill-rule="evenodd" clip-rule="evenodd" d="M72.1512 140.68C72.0336 139.646 71.9395 138.964 71.8925 138.776C71.8925 138.752 71.8925 138.729 71.8925 138.729C71.8925 138.729 70.8812 139.152 69.5407 139.575C68.2943 139.975 66.8127 140.375 65.6133 140.445C65.5193 140.445 65.4017 140.469 65.3076 140.469C65.3076 140.516 65.3076 140.563 65.2841 140.61C65.2371 141.151 65.0019 143.126 64.6962 145.407C66.1072 143.785 66.2248 141.362 66.2248 141.362C68.1062 141.551 70.9753 141.198 72.1512 140.68Z" fill="#606060"/>
<path fill-rule="evenodd" clip-rule="evenodd" d="M98.1849 199.356L98.4906 208.057L80.8761 211.844C80.8761 211.844 77.9835 211.891 77.7483 209.633C71.5162 207.305 60.5101 169.889 74.2207 169.983C74.2207 169.983 78.3598 169.748 79.8414 175.251C81.323 180.754 84.733 200.414 84.733 200.414L98.1849 199.356Z" fill="#5A98CD"/>
<path fill-rule="evenodd" clip-rule="evenodd" d="M128.287 231.81L141.104 239.218V240.347L128.287 232.939V231.81ZM122.314 252.74L127.182 255.539V256.668L122.314 253.869V252.74ZM122.314 233.245V234.373L141.104 245.215V244.086L122.314 233.245ZM122.314 238.113V239.242L141.104 250.083V248.954L122.314 238.113ZM122.314 242.981V244.11L141.104 254.951V253.822L122.314 242.981ZM122.314 247.849V248.978L141.104 259.819V258.69L122.314 247.849Z" fill="white"/>
<path fill-rule="evenodd" clip-rule="evenodd" d="M151.64 244.744L164.457 252.152V253.281L151.64 245.873V244.744ZM145.666 265.651L150.534 268.45V269.578L145.666 266.78V265.651ZM145.666 246.155V247.284L164.457 258.126V256.997L145.666 246.155ZM145.666 251.023V252.152L164.457 262.994V261.865L145.666 251.023ZM145.666 255.915V257.044L164.457 267.885V266.756L145.666 255.915ZM145.666 260.783V261.912L164.457 272.753V271.624L145.666 260.783Z" fill="white"/>
<path fill-rule="evenodd" clip-rule="evenodd" d="M75.4906 74.1732V88.1895L50.915 74.0086V62.8379C51.9968 63.026 53.2197 63.8021 54.5132 65.6129C58.5582 71.3276 62.1563 65.2131 65.5428 66.9064C68.9058 68.5996 67.2596 74.9728 70.0581 76.1252C72.8802 77.2775 74.1266 75.6078 75.4906 74.1732Z" fill="white"/>
<path fill-rule="evenodd" clip-rule="evenodd" d="M83.0397 75.02L85.509 76.4546V77.5834L83.0397 76.1488V75.02ZM80.3822 75.702V76.8309L85.509 79.794V78.6652L80.3822 75.702Z" fill="#F7E057"/>
<path fill-rule="evenodd" clip-rule="evenodd" d="M253.258 78.5952C236.772 78.5952 223.391 70.8815 223.368 61.357C222.85 62.4858 194.394 125.724 223.368 233.833C223.368 233.739 223.368 233.668 223.368 233.574C223.368 233.668 223.368 233.762 223.368 233.857C223.368 243.381 236.749 251.118 253.258 251.118C269.767 251.118 283.149 243.405 283.149 233.857C312.381 124.736 283.149 61.3335 283.149 61.3335C283.149 70.8815 269.767 78.5952 253.258 78.5952Z" fill="#FAFCFA"/>
<path fill-rule="evenodd" clip-rule="evenodd" d="M210.833 157.284C210.88 158.248 210.95 159.236 210.997 160.2C213.137 162.152 215.701 163.939 218.641 165.538C227.507 170.359 239.759 173.323 253.258 173.323C266.757 173.323 279.009 170.336 287.875 165.538C290.815 163.939 293.379 162.152 295.519 160.2C295.589 159.212 295.636 158.248 295.683 157.284C293.426 159.706 290.462 161.917 286.935 163.822C278.327 168.501 266.428 171.371 253.258 171.371C240.088 171.371 228.189 168.478 219.581 163.822C216.054 161.917 213.09 159.706 210.833 157.284ZM212.056 173.04C214.125 174.992 216.665 176.78 219.581 178.355C228.189 183.035 240.088 185.904 253.258 185.904C266.428 185.904 278.327 183.012 286.935 178.355C289.851 176.78 292.391 174.992 294.46 173.04C294.366 173.981 294.249 174.945 294.155 175.909C292.32 177.415 290.204 178.802 287.875 180.072C279.009 184.893 266.757 187.856 253.258 187.856C239.759 187.856 227.507 184.87 218.641 180.072C216.312 178.802 214.196 177.415 212.361 175.909C212.267 174.945 212.15 173.981 212.056 173.04Z" fill="#F1F7F2"/>
<path fill-rule="evenodd" clip-rule="evenodd" d="M263.982 249.989C275.176 247.496 283.149 241.217 283.149 233.88C312.381 124.76 283.149 61.3569 283.149 61.3569C283.149 68.8825 274.8 75.3027 263.135 77.6544C268.568 92.6114 286.864 153.945 263.982 249.989Z" fill="#F1F7F2"/>
<path d="M253.258 78.6181C269.766 78.6181 283.148 70.8898 283.148 61.3564C283.148 51.8231 269.766 44.0947 253.258 44.0947C236.75 44.0947 223.367 51.8231 223.367 61.3564C223.367 70.8898 236.75 78.6181 253.258 78.6181Z" fill="#F1F7F2"/>
<path fill-rule="evenodd" clip-rule="evenodd" d="M261.748 44.8003C274.118 46.9169 283.149 53.5252 283.149 61.3565C283.149 68.882 274.8 75.2787 263.135 77.654C263.135 77.654 264.664 74.6202 261.748 74.0793V44.8003Z" fill="#E3EFE5"/>
<path fill-rule="evenodd" clip-rule="evenodd" d="M279.833 56.8886C280.044 57.6882 280.162 58.4878 280.162 59.3109C280.162 59.3814 280.162 59.452 280.162 59.5226V59.5696C279.903 68.0123 267.98 74.8323 253.282 74.8323C238.583 74.8323 226.66 68.0358 226.401 59.5696V59.5226C226.401 59.452 226.401 59.3814 226.401 59.3109C226.401 58.4878 226.519 57.6882 226.73 56.8886C227.906 48.8222 233.08 24.3171 253.305 7.26709C273.483 24.3171 278.633 48.8222 279.833 56.8886Z" fill="#5A98CD"/>
<path fill-rule="evenodd" clip-rule="evenodd" d="M279.833 56.8886C280.044 57.6882 280.162 58.4878 280.162 59.3109C280.162 59.3814 280.162 59.452 280.162 59.5226V59.5696C279.95 66.3191 272.307 72.0102 261.748 74.0327C266.851 38.7803 253.281 7.26709 253.281 7.26709C273.483 24.3171 278.633 48.8222 279.833 56.8886Z" fill="#37485F"/>
<path fill-rule="evenodd" clip-rule="evenodd" d="M281.126 207.94L306.995 229.341C310.946 232.61 313.015 237.007 313.015 242.134V289.333C313.015 291.191 311.84 292.79 310.052 293.308C308.265 293.849 306.407 293.167 305.396 291.591L275.623 245.779L278.116 209.233L281.126 207.94Z" fill="#A5C3E2"/>
<path fill-rule="evenodd" clip-rule="evenodd" d="M278.116 209.233L303.985 230.634C307.936 233.903 310.005 238.301 310.005 243.428V290.627C310.005 292.485 308.829 294.084 307.042 294.601C305.255 295.142 303.397 294.46 302.386 292.884L272.613 247.073L278.116 209.233Z" fill="#5A98CD"/>
<path d="M276.052 122.214C280.543 108.61 273.156 93.9413 259.552 89.4501C245.948 84.9589 231.279 92.3463 226.787 105.95C222.296 119.554 229.684 134.223 243.288 138.715C256.892 143.206 271.561 135.818 276.052 122.214Z" fill="white"/>
<path fill-rule="evenodd" clip-rule="evenodd" d="M225.39 207.94L199.521 229.341C195.57 232.61 193.5 237.007 193.5 242.134V289.333C193.5 291.191 194.676 292.79 196.464 293.308C198.251 293.849 200.109 293.167 201.12 291.591L230.893 245.779L228.4 209.233L225.39 207.94Z" fill="#A5C3E2"/>
<path fill-rule="evenodd" clip-rule="evenodd" d="M228.4 209.233L202.531 230.634C198.58 233.903 196.51 238.301 196.51 243.428V290.627C196.51 292.485 197.686 294.084 199.474 294.601C201.261 295.142 203.119 294.46 204.13 292.884L233.903 247.073L228.4 209.233Z" fill="#5A98CD"/>
<path d="M272.989 135.779C283.119 125.649 283.119 109.226 272.989 99.0956C262.859 88.9657 246.435 88.9657 236.305 99.0956C226.175 109.226 226.175 125.649 236.305 135.779C246.435 145.909 262.859 145.909 272.989 135.779Z" fill="#EBE381"/>
<path fill-rule="evenodd" clip-rule="evenodd" d="M280.585 117.539C280.538 131.814 268.944 143.385 254.645 143.385C240.323 143.385 228.729 131.791 228.706 117.492C229.411 116.128 230.846 115.187 232.492 115.187C234.844 115.187 236.749 117.092 236.749 119.444H272.495C272.495 117.092 274.4 115.187 276.752 115.187C278.421 115.164 279.879 116.128 280.585 117.539Z" fill="#D9DD75"/>
<path d="M267.718 130.508C274.937 123.289 274.937 111.586 267.718 104.367C260.499 97.1484 248.796 97.1484 241.577 104.367C234.358 111.586 234.358 123.289 241.577 130.508C248.796 137.727 260.499 137.727 267.718 130.508Z" fill="#475384"/>
<path fill-rule="evenodd" clip-rule="evenodd" d="M254.646 97.0794C255.445 97.0794 256.127 96.4209 256.127 95.5978C256.127 94.7982 255.469 94.1162 254.646 94.1162C253.846 94.1162 253.164 94.7747 253.164 95.5978C253.164 96.3974 253.822 97.0794 254.646 97.0794Z" fill="white"/>
<path d="M270.073 103.476C270.891 103.476 271.554 102.813 271.554 101.995C271.554 101.177 270.891 100.513 270.073 100.513C269.255 100.513 268.591 101.177 268.591 101.995C268.591 102.813 269.255 103.476 270.073 103.476Z" fill="white"/>
<path fill-rule="evenodd" clip-rule="evenodd" d="M277.951 117.445C277.951 118.269 277.293 118.927 276.47 118.927C275.647 118.927 274.988 118.269 274.988 117.445C274.988 116.622 275.647 115.964 276.47 115.964C277.293 115.964 277.951 116.622 277.951 117.445Z" fill="white"/>
<path d="M270.073 134.354C270.891 134.354 271.554 133.691 271.554 132.873C271.554 132.054 270.891 131.391 270.073 131.391C269.255 131.391 268.591 132.054 268.591 132.873C268.591 133.691 269.255 134.354 270.073 134.354Z" fill="white"/>
<path fill-rule="evenodd" clip-rule="evenodd" d="M254.646 140.751C253.822 140.751 253.164 140.093 253.164 139.27C253.164 138.447 253.822 137.788 254.646 137.788C255.469 137.788 256.127 138.447 256.127 139.27C256.127 140.093 255.445 140.751 254.646 140.751Z" fill="white"/>
<path d="M239.194 134.354C240.013 134.354 240.676 133.691 240.676 132.873C240.676 132.054 240.013 131.391 239.194 131.391C238.376 131.391 237.713 132.054 237.713 132.873C237.713 133.691 238.376 134.354 239.194 134.354Z" fill="white"/>
<path fill-rule="evenodd" clip-rule="evenodd" d="M231.316 117.445C231.316 116.622 231.975 115.964 232.798 115.964C233.621 115.964 234.279 116.622 234.279 117.445C234.279 118.269 233.621 118.927 232.798 118.927C231.975 118.904 231.316 118.245 231.316 117.445Z" fill="white"/>
<path d="M239.194 103.476C240.013 103.476 240.676 102.813 240.676 101.995C240.676 101.177 240.013 100.513 239.194 100.513C238.376 100.513 237.713 101.177 237.713 101.995C237.713 102.813 238.376 103.476 239.194 103.476Z" fill="white"/>
<path fill-rule="evenodd" clip-rule="evenodd" d="M236.843 34.1001C238.724 34.1001 239.712 37.322 239.03 41.2964C238.348 45.2708 236.278 48.4927 234.397 48.4927C232.516 48.4927 231.528 45.2708 232.21 41.2964C232.868 37.322 234.961 34.1001 236.843 34.1001Z" fill="#A5C3E2"/>
<path fill-rule="evenodd" clip-rule="evenodd" d="M308.782 132.332C322.775 134.448 332.229 139.528 334.134 147.171C338.202 163.563 306.172 185.622 262.594 196.44C219.017 207.258 180.401 202.742 176.333 186.351C174.263 178.049 181.483 168.289 194.747 159.282C185.458 166.596 180.66 174.239 182.306 180.848C186.022 195.875 221.416 200.014 261.348 190.09C301.28 180.189 330.63 159.964 326.891 144.96C325.409 138.916 318.777 134.636 308.782 132.332Z" fill="white"/>
<path fill-rule="evenodd" clip-rule="evenodd" d="M284.536 64.8608C294.531 66.3659 301.28 69.9876 302.644 75.4671C305.56 87.1788 282.678 102.912 251.565 110.649C220.451 118.363 192.865 115.141 189.949 103.453C188.468 97.5264 193.618 90.5653 203.095 84.1215C196.464 89.3424 193.03 94.7984 194.206 99.5254C196.863 110.249 222.145 113.212 250.647 106.134C279.174 99.055 300.128 84.6154 297.47 73.8915C296.389 69.5643 291.662 66.5071 284.536 64.8608Z" fill="white"/>
<path fill-rule="evenodd" clip-rule="evenodd" d="M315.885 111.049C317.46 111.049 318.73 109.755 318.73 108.203C318.73 106.627 317.437 105.357 315.885 105.357C314.309 105.357 313.039 106.651 313.039 108.203C313.015 109.779 314.309 111.049 315.885 111.049Z" fill="white"/>
<path fill-rule="evenodd" clip-rule="evenodd" d="M327.243 200.32C330.536 200.32 333.217 197.639 333.217 194.347C333.217 191.055 330.536 188.374 327.243 188.374C323.951 188.374 321.27 191.055 321.27 194.347C321.294 197.639 323.975 200.32 327.243 200.32Z" fill="white"/>
<path fill-rule="evenodd" clip-rule="evenodd" d="M180.895 123.513C182.753 123.513 184.258 122.008 184.258 120.15C184.258 118.292 182.753 116.787 180.895 116.787C179.037 116.787 177.532 118.292 177.532 120.15C177.532 122.008 179.037 123.513 180.895 123.513Z" fill="white"/>
<path fill-rule="evenodd" clip-rule="evenodd" d="M216.712 4.67994C218.006 4.67994 219.04 3.62167 219.04 2.35173C219.04 1.0818 218.006 0 216.712 0C215.419 0 214.384 1.05828 214.384 2.32821C214.384 3.59815 215.419 4.67994 216.712 4.67994Z" fill="white"/>
</g>
<defs>
<clipPath id="clip0">
<rect width="402" height="329" fill="white"/>
</clipPath>
</defs>
</svg>
