<svg width="473" height="270" viewBox="0 0 473 270" fill="none" xmlns="http://www.w3.org/2000/svg">
<g clip-path="url(#clip0)">
<path d="M40.1793 143.26C-6.37161 140.639 -13.2004 84.1096 23.5162 62.8299C53.957 45.181 102.095 54.847 133.594 54.5344C180.553 54.0776 204.141 23.1318 244.585 6.80532C284.475 -9.30475 304.216 5.026 334.368 30.8983C361.707 54.3661 390.85 61.1227 422.301 73.8425C451.395 85.6004 472.939 105.365 472.266 141.312C471.545 178.654 434.78 191.23 405.133 192.576C371.253 194.091 338.793 193.658 306.452 203.853C258.05 219.122 209.503 223.041 161.221 206.907C136.383 198.611 123.351 187.984 101.518 173.292C84.8547 162.063 57.0348 144.222 40.1793 143.26Z" fill="#E4F5FD"/>
<path d="M292.337 121.331C295.247 123.422 296.954 125.971 296.954 128.712C296.954 135.998 284.859 141.889 269.927 141.889C267.884 141.889 265.888 141.769 263.964 141.552C267.86 142.779 272.5 143.476 277.478 143.476C291.376 143.476 302.629 137.994 302.629 131.213C302.629 127.149 298.589 123.543 292.337 121.331Z" fill="white"/>
<path d="M117.748 78.771L193.585 166.054C193.585 166.03 144.245 92.0197 117.748 78.771Z" fill="white"/>
<path d="M303.855 112.723L348.819 164.467C348.819 164.467 319.556 120.561 303.855 112.723Z" fill="white"/>
<path d="M277.862 45.8057L306.909 79.2521C306.909 79.2281 288.009 50.8791 277.862 45.8057Z" fill="white"/>
<path d="M180.625 70.5957L225.589 122.34C225.589 122.34 196.326 78.4584 180.625 70.5957Z" fill="white"/>
<path d="M146.096 150.377H142.634V146.915H138.859V150.377H135.396V154.152H138.859V157.615H142.634V154.152H146.096V150.377Z" fill="white"/>
<path d="M206.521 63.3579C206.521 63.3579 235.976 26.7616 290.053 67.0127C344.13 107.264 386.69 95.1212 386.69 95.1212C386.69 95.1212 353.147 159.634 289.548 143.259C225.95 126.884 206.521 63.3579 206.521 63.3579Z" fill="white"/>
<path d="M207.171 66.6522C207.171 66.6522 236.265 30.4887 289.741 70.2589C343.217 110.029 385.247 98.0548 385.247 98.0548C385.247 98.0548 352.089 161.798 289.236 145.64C226.383 129.481 207.171 66.6522 207.171 66.6522Z" fill="#D44745"/>
<path d="M289.741 70.2831C250.211 40.8762 224.002 52.9707 213.014 61.2903C228.162 59.7273 248.215 63.8631 272.789 82.1612C318.979 116.521 357.668 116.834 373.465 115.007C381.256 105.701 385.223 98.0549 385.223 98.0549C385.223 98.0549 343.217 110.053 289.741 70.2831Z" fill="#D44745"/>
<path d="M160.805 36.3116L157.078 40.1682C157.078 40.1682 148.301 33.6166 145.81 32.2613C143.322 30.882 139.063 29.337 138.759 28.3371C138.17 26.3877 145.08 28.7006 145.08 28.7006C145.08 28.7006 135.664 16.8328 137.602 15.4446C140.478 13.4315 146.798 21.7025 152.41 28.4468C155.219 31.7951 160.805 36.3116 160.805 36.3116Z" fill="#ECDCCA"/>
<path d="M153.05 38.2615L158.785 33.2661C158.785 33.2661 181.576 50.5341 194.136 56.9836C206.441 63.3331 234.341 69.4929 229.383 79.1906C223.993 89.7609 201.317 79.3246 187.594 71.0819C166.015 58.079 153.05 38.2615 153.05 38.2615Z" fill="#37295A"/>
<path d="M202.41 71.8701L201.448 76.7512L215.563 62.9254L212.749 60.04L202.41 71.8701Z" fill="#5688C2"/>
<path d="M267.427 236.193L285.821 243.671L288.514 237.828L270.553 226.527L267.427 236.193Z" fill="#A7B2AA"/>
<path d="M222.608 144.798L265.552 143.283C265.552 143.283 241.002 202.169 245.066 209.96C258.194 215.586 283.056 231.768 283.056 231.768L278.272 242.925C278.272 242.925 244.585 235.592 222.968 222.848C214.673 209.31 222.608 144.798 222.608 144.798Z" fill="#49524C"/>
<path d="M327.708 211.907L339.057 227.705L332.348 229.292L319.701 217.654L327.708 211.907Z" fill="#A7B2AA"/>
<path d="M263.243 135.733C263.243 135.733 288.803 167.905 298.277 178.365C306.5 187.43 334.272 217.582 334.272 217.582L326 225.493C326 225.493 286.206 201.472 275.53 194.235C262.81 185.627 222.824 149.439 222.824 149.439L263.243 135.733Z" fill="#7F8E85"/>
<path d="M212.412 47.1518C214.384 42.8237 217.87 39.6017 217.149 34.5282C216.644 30.9215 214.456 27.1224 211.426 25.0065C208.132 22.6982 204.405 21.9528 200.726 22.9146C188.151 26.2087 187.382 47.1999 190.724 57.2506C194.21 67.7583 199.957 59.8715 205.006 57.2266C204.67 57.3949 205.463 69.5135 206.545 74.3465C211.234 73.1684 216.572 71.5333 221.285 70.4032C218.952 66.2675 214.336 58.7414 211.955 47.2239" fill="#ECDCCA"/>
<path d="M287.288 131.453C288.491 134.362 290.198 141.119 291.52 140.566C292.674 140.085 292.145 136.526 291.737 133.857C297.772 134.05 313.834 132.655 308.4 129.169C304.649 126.764 292.843 128.111 289.645 122.725C287.841 123.374 286.399 124.239 284.667 125.057C283.706 123.422 287.288 131.453 287.288 131.453Z" fill="#ECDCCA"/>
<path d="M288.25 236.192C287.769 237.322 288.346 237.924 286.639 241.386C285.244 244.247 283.128 242.612 282.672 244.079C282.263 245.329 284.98 250.499 284.09 266.345C283.826 270.817 287.048 271.226 289.043 267.451L294.237 247.518L294.141 247.974L295.704 248.431L298.229 239.799L295.944 238.429C293.852 236.793 288.394 235.207 288.25 236.192Z" fill="black"/>
<path d="M335.643 221.429C335.162 222.559 335.739 223.16 334.032 226.623C332.637 229.484 330.521 227.849 330.064 229.316C329.655 230.566 332.372 235.736 331.483 251.581C331.218 256.054 334.44 256.463 336.436 252.688L341.63 232.754L341.534 233.211L343.097 233.668L345.621 225.036L343.337 223.665C341.245 222.03 335.763 220.443 335.643 221.429Z" fill="black"/>
<path d="M213.038 23.9485C213.038 23.9485 216.741 22.9867 218.953 24.5255C223.329 27.6033 223.497 34.937 220.54 40.9963C218.953 44.2664 213.543 53.5958 213.543 53.5958L209.912 51.3356L206.594 46.3823C206.594 46.3823 211.066 43.7374 209.84 40.9482C208.613 38.183 205.608 41.4531 205.608 41.4531L200.462 33.0855C200.462 33.0855 202.29 32.0516 194.523 34.961C186.757 37.8704 183.655 35.8026 183.655 35.8026C183.655 35.8026 185.626 22.5298 193.489 18.7307C205.608 12.8638 213.038 23.9485 213.038 23.9485Z" fill="#C1463C"/>
<path d="M217.317 61.5543C223.112 65.4496 235.039 78.9869 244.681 92.8367C259.564 114.261 263.075 132.583 263.916 136.502C265.022 141.6 251.726 143.091 240.737 147.972C232.754 151.506 225.661 156.075 223.353 151.266C218.231 140.59 213.759 122.749 209.623 99.7857C204.886 73.5046 204.526 74.9954 206.425 70.2105C208.012 66.2431 215.514 60.3521 217.317 61.5543Z" fill="#37295A"/>
<path d="M241.435 91.4664C231.672 86.7055 220.78 79.3959 213.927 73.3125C217.245 79.9489 227.897 89.8794 236.481 95.6983C248.119 103.561 251.485 105.076 252.976 106.134C249.85 100.435 245.282 93.3419 241.435 91.4664Z" fill="#25073A"/>
<path d="M203.853 73.5768L205.079 80.9586L208.806 80.1411L208.974 70.8838L203.853 73.5768Z" fill="#DC9F60"/>
<path d="M204.935 80.1891L218.304 133.785L226.815 140.782L227.32 129.794L208.541 79.3716L204.935 80.1891Z" fill="#DC9F60"/>
<path d="M203.636 71.2931L206.618 74.467L217.51 61.603L215.562 58.5493L203.636 71.2931Z" fill="#5287BD"/>
<path d="M291.183 123.35L284.932 127.702C284.932 127.702 263.844 108.49 252.351 100.315C245.209 95.2172 205.992 74.0096 211.955 64.8966C218.448 54.966 248.552 78.7224 260.358 86.9938C280.988 101.469 291.183 123.35 291.183 123.35Z" fill="#37295A"/>
</g>
<defs>
<clipPath id="clip0">
<rect width="472.266" height="270" fill="white"/>
</clipPath>
</defs>
</svg>
