<svg width="444" height="250" viewBox="0 0 444 250" fill="none" xmlns="http://www.w3.org/2000/svg">
<path d="M37.7139 173.297C-5.98425 170.889 -12.3933 119.088 22.0736 99.5767C50.6504 83.398 95.8347 92.267 125.415 91.9802C169.489 91.5568 191.645 63.1853 229.608 48.2108C267.052 33.4435 285.596 46.5854 313.893 70.2924C339.561 91.8026 366.922 98.0037 396.435 109.65C423.746 120.429 443.97 138.55 443.335 171.485C442.668 205.707 408.14 217.242 380.316 218.469C348.517 219.867 318.037 219.464 287.685 228.813C242.251 242.804 196.67 246.397 151.343 231.62C128.035 224.024 115.806 214.276 95.3067 200.804C79.6482 190.516 53.5522 174.169 37.7139 173.297Z" fill="#E4F5FD"/>
<path d="M53.4793 221.148C45.8936 230.222 41.6216 237.211 39.216 242.217C38.9884 242.706 38.7607 243.178 38.5627 243.628C37.8268 245.247 37.2107 246.917 36.7192 248.625H36.0114C35.9818 247.23 35.9591 245.438 35.9613 243.326C35.9613 242.964 35.9613 242.597 35.9613 242.217C35.9613 241.716 35.9659 241.201 35.975 240.671C36.1047 228.606 37.1289 209.14 41.7787 193.949C42.5555 191.38 43.4912 188.861 44.5804 186.407C55.0497 163.21 70.1096 159.9 72.5995 158.728C75.0894 157.556 70.9949 200.194 53.4793 221.148Z" fill="#6E906A"/>
<path d="M67.2443 163.834C66.9347 164.467 48.6157 201.764 41.2439 230.969C40.5224 233.83 39.6508 238.076 38.836 242.217C38.7449 242.69 38.6516 243.159 38.5628 243.628C38.226 245.383 37.9051 247.086 37.6206 248.625H35.3447C35.3447 248.807 35.3447 248.985 35.3447 249.158L35.2627 248.798C35.2627 248.739 35.2764 248.682 35.2809 248.625C35.3082 248.422 35.3356 248.22 35.3606 248.015C35.5518 246.49 35.7566 244.878 35.9591 243.325C36.0069 242.952 36.057 242.581 36.1048 242.217C36.428 239.767 36.733 237.564 36.9515 236.216C40.9344 211.61 66.8391 164.567 67.2443 163.834Z" fill="white"/>
<path d="M39.956 222.567C37.8349 229.888 36.6241 235.861 35.9822 240.671C35.9124 241.199 35.8487 241.715 35.791 242.217C35.5384 244.409 35.411 246.333 35.3677 248.015C35.3677 248.22 35.3677 248.425 35.3564 248.625C35.345 248.826 35.3564 248.985 35.3564 249.158L35.2744 248.798L35.2334 248.625H32.2861C31.4599 246.713 30.5564 244.559 29.6142 242.217C24.2429 228.856 17.6905 209.413 17.8316 194.348C18.0728 168.904 30.5291 159.805 32.3407 157.729C33.5538 156.336 39.9765 174.151 41.7905 193.949C42.6872 203.693 42.4596 213.914 39.956 222.567Z" fill="#A3C1A6"/>
<path d="M35.224 248.625H32.4633C31.7987 246.349 31.2183 244.3 30.886 243.014C30.8178 242.752 30.7518 242.485 30.6858 242.217C24.7501 217.82 29.3725 165.769 29.4795 164.572C29.434 165.648 27.7202 206.914 32.7022 236.482C32.9731 238.076 33.3646 240.066 33.8175 242.217C34.2499 244.284 34.7392 246.481 35.224 248.625Z" fill="white"/>
<path d="M52.79 242.217V248.625H35.3518C35.3518 248.807 35.3518 248.985 35.3518 249.158L35.2698 248.798L35.2289 248.625H19.1379V242.217H52.79Z" fill="#DDEDF2"/>
<path d="M209.741 58.5804C210.698 60.9974 212.575 62.9353 214.96 63.9679C217.345 65.0006 220.043 65.0435 222.459 64.0871L217.666 51.9696C216.128 48.0837 210.501 48.3591 209.398 52.393C208.837 54.438 208.958 56.61 209.741 58.5804V58.5804Z" fill="#2F3133"/>
<path d="M223.397 57.6872C223.881 60.2413 225.359 62.4986 227.507 63.9625C229.655 65.4263 232.296 65.9769 234.849 65.4932L232.423 52.6905C231.645 48.5929 226.069 47.7938 224.23 51.5523C223.293 53.4524 223.001 55.606 223.397 57.6872V57.6872Z" fill="#2F3133"/>
<path d="M215.973 55.8141C216.512 58.3549 218.037 60.5778 220.213 61.9945C222.39 63.4112 225.039 63.9058 227.58 63.3696L224.879 50.6215C224.011 46.5239 218.419 45.8637 216.658 49.654C215.766 51.5784 215.526 53.7408 215.973 55.8141Z" fill="#2F3133"/>
<path d="M279.688 188.946H285.703C286.269 188.946 286.829 189.057 287.352 189.274C287.875 189.49 288.35 189.808 288.75 190.208C289.15 190.608 289.467 191.083 289.684 191.606C289.9 192.129 290.012 192.689 290.012 193.255V195.456H279.688V188.946V188.946Z" fill="#8CBDD0"/>
<path d="M243.978 191.932C246.339 191.932 248.253 190.018 248.253 187.657C248.253 185.296 246.339 183.382 243.978 183.382C241.618 183.382 239.704 185.296 239.704 187.657C239.704 190.018 241.618 191.932 243.978 191.932Z" fill="white"/>
<path d="M243.978 192.103C242.8 192.102 241.67 191.633 240.837 190.8C240.003 189.966 239.535 188.836 239.533 187.657C239.535 186.478 240.003 185.348 240.837 184.514C241.67 183.68 242.8 183.211 243.978 183.209C245.157 183.211 246.287 183.68 247.121 184.514C247.955 185.348 248.424 186.478 248.426 187.657C248.424 188.836 247.955 189.966 247.121 190.8C246.287 191.633 245.157 192.102 243.978 192.103V192.103ZM243.978 183.555C242.892 183.555 241.85 183.987 241.082 184.755C240.313 185.524 239.882 186.566 239.882 187.653C239.882 188.739 240.313 189.782 241.082 190.55C241.85 191.319 242.892 191.75 243.978 191.75C245.065 191.75 246.107 191.319 246.875 190.55C247.643 189.782 248.075 188.739 248.075 187.653C248.075 186.566 247.643 185.524 246.875 184.755C246.107 183.987 245.065 183.555 243.978 183.555V183.555Z" fill="#504D70"/>
<path d="M376.054 195.461H73.3052V211.724H376.054V195.461Z" fill="#AFD3E3"/>
<path d="M376.054 195.461H73.3052V200.275H376.054V195.461Z" fill="#8CBDD0"/>
<path d="M87.7758 211.724H76.0979V249.315H87.7758V211.724Z" fill="#AFD3E3"/>
<path d="M373.261 211.724H361.583V249.315H373.261V211.724Z" fill="#AFD3E3"/>
<path d="M373.259 219.2L361.583 211.724H373.259V219.2Z" fill="#8CBDD0"/>
<path d="M87.7735 219.2L76.0979 211.724H87.7735V219.2Z" fill="#8CBDD0"/>
<path d="M301.421 61.7898H147.938C142.189 61.7898 137.528 66.4516 137.528 72.2023V169.234C137.528 174.984 142.189 179.646 147.938 179.646H301.421C307.17 179.646 311.831 174.984 311.831 169.234V72.2023C311.831 66.4516 307.17 61.7898 301.421 61.7898Z" fill="#8CBDD0"/>
<path d="M297.176 72.48H152.18C149.991 72.48 148.216 74.2554 148.216 76.4456V164.99C148.216 167.181 149.991 168.956 152.18 168.956H297.176C299.366 168.956 301.141 167.181 301.141 164.99V76.4456C301.141 74.2554 299.366 72.48 297.176 72.48Z" fill="white"/>
<path d="M286.4 161.307H246.712C245.126 161.305 243.606 160.674 242.485 159.553C241.363 158.431 240.733 156.911 240.731 155.325V85.7879C240.733 84.2018 241.363 82.6812 242.485 81.5597C243.606 80.4381 245.126 79.8072 246.712 79.8054H286.4C287.986 79.8072 289.506 80.4381 290.627 81.5597C291.748 82.6812 292.379 84.2018 292.381 85.7879V155.325C292.379 156.911 291.748 158.431 290.627 159.553C289.506 160.674 287.986 161.305 286.4 161.307ZM246.712 80.8344C245.4 80.8362 244.142 81.3585 243.214 82.2866C242.286 83.2148 241.764 84.4731 241.762 85.7857V155.322C241.764 156.635 242.286 157.893 243.214 158.821C244.142 159.749 245.4 160.272 246.712 160.273H286.4C287.712 160.272 288.97 159.749 289.898 158.821C290.826 157.893 291.348 156.635 291.35 155.322V85.7879C291.348 84.4753 290.826 83.217 289.898 82.2888C288.97 81.3607 287.712 80.8384 286.4 80.8366L246.712 80.8344Z" fill="#8CBDD0"/>
<path d="M205.403 80.3223H162.088C159.07 80.3223 156.623 82.7694 156.623 85.788V119.948C156.623 122.967 159.07 125.414 162.088 125.414H205.403C208.421 125.414 210.868 122.967 210.868 119.948V85.788C210.868 82.7694 208.421 80.3223 205.403 80.3223Z" fill="#8CBDD0"/>
<path d="M195.38 83.9304H163.219C161.684 83.9304 160.44 85.1749 160.44 86.71V95.0509C160.44 96.586 161.684 97.8304 163.219 97.8304H195.38C196.915 97.8304 198.159 96.586 198.159 95.0509V86.71C198.159 85.1749 196.915 83.9304 195.38 83.9304Z" fill="white"/>
<path d="M266.057 121.786C264.072 121.782 262.169 120.992 260.764 119.589C259.359 118.186 258.567 116.284 258.56 114.298C258.565 112.311 259.356 110.407 260.761 109.002C262.166 107.597 264.07 106.806 266.057 106.802C268.044 106.806 269.949 107.597 271.354 109.002C272.759 110.407 273.55 112.311 273.554 114.298C273.548 116.284 272.755 118.186 271.35 119.589C269.946 120.992 268.042 121.782 266.057 121.786V121.786ZM266.057 107.822C265.207 107.822 264.365 107.989 263.58 108.315C262.794 108.64 262.081 109.118 261.479 109.719C260.878 110.32 260.402 111.034 260.077 111.82C259.751 112.606 259.584 113.448 259.584 114.298C259.586 116.013 260.268 117.657 261.48 118.87C262.693 120.082 264.336 120.764 266.05 120.766C267.765 120.764 269.408 120.082 270.62 118.869C271.832 117.657 272.513 116.013 272.514 114.298C272.515 112.584 271.836 110.938 270.625 109.724C269.415 108.51 267.772 107.825 266.057 107.822Z" fill="#8BD2FA"/>
<path d="M266.057 119.172C264.765 119.169 263.527 118.655 262.612 117.742C261.698 116.829 261.182 115.591 261.177 114.298C261.179 113.003 261.695 111.762 262.61 110.847C263.526 109.931 264.767 109.416 266.062 109.415C267.355 109.418 268.596 109.933 269.51 110.848C270.425 111.764 270.94 113.004 270.941 114.298C270.937 115.591 270.42 116.83 269.505 117.743C268.59 118.657 267.35 119.17 266.057 119.172V119.172ZM266.057 110.435C265.036 110.436 264.057 110.843 263.335 111.565C262.614 112.287 262.207 113.266 262.206 114.287C262.207 115.309 262.613 116.288 263.335 117.011C264.057 117.733 265.036 118.14 266.057 118.141C267.078 118.14 268.058 117.733 268.78 117.011C269.502 116.288 269.907 115.309 269.908 114.287C269.909 113.265 269.503 112.284 268.781 111.56C268.059 110.837 267.079 110.43 266.057 110.428V110.435Z" fill="#8CBDD0"/>
<path d="M183.302 121.786C181.314 121.782 179.41 120.991 178.004 119.585C176.599 118.18 175.808 116.275 175.805 114.287C175.809 112.3 176.6 110.395 178.005 108.99C179.41 107.585 181.315 106.794 183.302 106.791C185.288 106.795 187.192 107.586 188.597 108.991C190.001 110.396 190.792 112.3 190.796 114.287C190.793 116.274 190.002 118.179 188.597 119.584C187.193 120.99 185.288 121.781 183.302 121.786V121.786ZM183.302 107.822C181.588 107.823 179.944 108.504 178.732 109.717C177.519 110.929 176.838 112.572 176.836 114.287C176.838 116.002 177.519 117.646 178.732 118.858C179.944 120.071 181.587 120.752 183.302 120.754C185.016 120.752 186.659 120.07 187.871 118.858C189.083 117.645 189.764 116.001 189.765 114.287C189.764 112.573 189.082 110.929 187.87 109.717C186.658 108.505 185.015 107.824 183.302 107.822V107.822Z" fill="white"/>
<path d="M183.302 119.173C182.007 119.171 180.765 118.656 179.85 117.74C178.934 116.824 178.419 115.583 178.418 114.287C178.419 112.992 178.934 111.751 179.85 110.835C180.766 109.919 182.007 109.405 183.302 109.404C184.596 109.406 185.837 109.92 186.753 110.836C187.668 111.751 188.183 112.993 188.184 114.287C188.183 115.582 187.668 116.824 186.753 117.74C185.838 118.655 184.596 119.171 183.302 119.173V119.173ZM183.302 110.435C182.795 110.436 182.294 110.536 181.826 110.73C181.358 110.925 180.933 111.209 180.575 111.568C180.217 111.927 179.933 112.353 179.74 112.821C179.547 113.29 179.448 113.792 179.449 114.299C179.449 115.321 179.855 116.301 180.578 117.023C181.3 117.746 182.28 118.152 183.302 118.153C184.323 118.152 185.302 117.745 186.024 117.022C186.746 116.3 187.152 115.32 187.153 114.299C187.155 113.791 187.056 113.289 186.864 112.82C186.671 112.351 186.388 111.924 186.03 111.565C185.672 111.205 185.247 110.92 184.779 110.725C184.311 110.53 183.809 110.429 183.302 110.429V110.435Z" fill="white"/>
<path d="M284.454 88.8703H248.362C248.258 88.8706 248.155 88.8504 248.058 88.8107C247.962 88.7711 247.874 88.7127 247.8 88.6391C247.727 88.5655 247.668 88.4781 247.628 88.3818C247.588 88.2855 247.568 88.1823 247.568 88.0781V88.0781C247.568 87.8674 247.651 87.6653 247.8 87.5163C247.949 87.3673 248.151 87.2837 248.362 87.2837H284.454C284.665 87.2837 284.867 87.3673 285.016 87.5163C285.164 87.6653 285.248 87.8674 285.248 88.0781C285.248 88.1823 285.228 88.2855 285.188 88.3818C285.148 88.4781 285.089 88.5655 285.015 88.6391C284.942 88.7127 284.854 88.7711 284.758 88.8107C284.661 88.8504 284.558 88.8706 284.454 88.8703V88.8703Z" fill="#DEDFFC"/>
<path d="M282.26 133.375H250.556C248.906 133.375 247.568 134.713 247.568 136.364C247.568 138.015 248.906 139.353 250.556 139.353H282.26C283.91 139.353 285.248 138.015 285.248 136.364C285.248 134.713 283.91 133.375 282.26 133.375Z" fill="#8CBDD0"/>
<path d="M282.26 143.573H250.556C248.906 143.573 247.568 144.912 247.568 146.562C247.568 148.213 248.906 149.551 250.556 149.551H282.26C283.91 149.551 285.248 148.213 285.248 146.562C285.248 144.912 283.91 143.573 282.26 143.573Z" fill="#8CBDD0"/>
<path d="M280.218 163.739L283.152 188.857C283.248 189.686 283.168 190.526 282.917 191.322C282.666 192.118 282.249 192.851 281.694 193.475C281.14 194.098 280.459 194.597 279.698 194.939C278.937 195.281 278.112 195.458 277.278 195.459H272.366V163.739H280.218Z" fill="#FFBBB3"/>
<path d="M281.814 173.258H263.272V245.244H185.662V162.928L167.163 163.126V131.372L207.04 127.556H239.941C263.067 127.566 281.814 150.134 281.814 173.258Z" fill="#576DB2"/>
<path d="M186.003 157.822H185.316V162.937H186.003V157.822Z" fill="#6D0000"/>
<path d="M263.442 165.915H263.098V204.99H263.442V165.915Z" fill="#504D70"/>
<path d="M224.08 146.563C219.71 146.557 215.52 144.818 212.43 141.727C209.34 138.636 207.602 134.445 207.597 130.074V127.57H208.28V130.074C208.285 134.263 209.951 138.278 212.912 141.24C215.873 144.202 219.888 145.868 224.075 145.873C228.263 145.868 232.278 144.202 235.239 141.24C238.2 138.278 239.865 134.263 239.87 130.074V127.57H240.553V130.074C240.548 134.444 238.812 138.633 235.724 141.724C232.636 144.815 228.448 146.555 224.08 146.563V146.563Z" fill="#6D0000"/>
<path d="M211.901 120.511H236.242V134.19C236.242 136.327 235.394 138.376 233.883 139.887C232.373 141.398 230.324 142.246 228.188 142.246H219.956C217.819 142.246 215.771 141.398 214.26 139.887C212.75 138.376 211.901 136.327 211.901 134.19V120.511V120.511Z" fill="#F5968C"/>
<path d="M200.954 98.7275C202.38 95.33 200.783 91.419 197.386 89.9922C193.99 88.5654 190.079 90.163 188.653 93.5606C187.226 96.9581 188.824 100.869 192.221 102.296C195.617 103.723 199.527 102.125 200.954 98.7275Z" fill="#FFBBB3"/>
<path d="M256.72 102.398C260.117 100.971 261.714 97.0604 260.288 93.6629C258.861 90.2653 254.951 88.6677 251.555 90.0945C248.158 91.5213 246.56 95.4323 247.987 98.8298C249.413 102.227 253.324 103.825 256.72 102.398Z" fill="#FFBBB3"/>
<path d="M231.442 58.2727C225.863 56.9691 220.043 57.1125 214.534 58.6893C203.492 61.783 196.145 72.2615 196.145 83.7303V101.241C196.145 108.578 199.06 115.614 204.247 120.803C209.434 125.991 216.469 128.906 223.804 128.906V128.906C231.14 128.906 238.175 125.991 243.362 120.803C248.549 115.614 251.463 108.578 251.464 101.241V83.794C251.464 71.6855 243.227 60.993 231.442 58.2727Z" fill="#FFBBB3"/>
<path d="M116.99 82.5442V142.26C116.989 145.356 117.639 148.418 118.895 151.248C120.151 154.077 121.987 156.612 124.284 158.688C126.581 160.764 129.287 162.334 132.229 163.299C135.17 164.263 138.281 164.6 141.361 164.287L167.161 161.669V136.58L139.415 139.795C139.042 139.838 138.665 139.805 138.306 139.697C137.947 139.59 137.613 139.411 137.325 139.171C137.038 138.931 136.802 138.635 136.632 138.3C136.462 137.966 136.362 137.601 136.338 137.227L132.789 82.5533L116.99 82.5442Z" fill="#FFBBB3"/>
<path d="M228.27 52.3357H219.872C212.451 52.3357 205.334 55.284 200.087 60.532C194.84 65.7801 191.892 72.898 191.891 80.3202V109.973C191.892 111.04 192.316 112.063 193.07 112.818C193.825 113.572 194.848 113.996 195.915 113.996C196.982 113.996 198.005 113.572 198.759 112.818C199.513 112.063 199.937 111.04 199.937 109.973V117.593C199.937 118.659 200.36 119.682 201.114 120.437C201.869 121.191 202.892 121.615 203.958 121.615C204.486 121.615 205.01 121.511 205.498 121.309C205.986 121.107 206.43 120.811 206.803 120.438C207.177 120.064 207.473 119.621 207.676 119.132C207.878 118.644 207.982 118.121 207.982 117.593V113.798C207.982 114.864 208.406 115.888 209.16 116.642C209.914 117.396 210.937 117.82 212.004 117.82C213.07 117.82 214.093 117.396 214.847 116.642C215.602 115.888 216.025 114.864 216.025 113.798V124.119C216.025 124.648 216.129 125.171 216.332 125.659C216.534 126.147 216.83 126.591 217.204 126.964C217.578 127.338 218.021 127.634 218.509 127.836C218.998 128.038 219.521 128.142 220.049 128.142C221.116 128.142 222.139 127.718 222.893 126.963C223.647 126.209 224.071 125.186 224.071 124.119C224.071 125.186 224.494 126.209 225.249 126.963C226.003 127.718 227.026 128.142 228.092 128.142C229.159 128.142 230.182 127.718 230.937 126.964C231.691 126.209 232.116 125.186 232.116 124.119V113.798C232.116 114.864 232.54 115.888 233.294 116.642C234.048 117.396 235.071 117.82 236.138 117.82C237.205 117.82 238.228 117.396 238.982 116.642C239.737 115.888 240.161 114.865 240.162 113.798V117.59C240.162 118.657 240.585 119.679 241.339 120.434C242.092 121.188 243.115 121.612 244.181 121.613C244.709 121.613 245.232 121.509 245.721 121.307C246.209 121.105 246.652 120.809 247.026 120.435C247.4 120.062 247.696 119.618 247.898 119.13C248.101 118.642 248.205 118.119 248.205 117.59V109.973C248.205 110.502 248.309 111.025 248.511 111.513C248.713 112.001 249.01 112.445 249.384 112.818C249.757 113.192 250.201 113.488 250.689 113.69C251.177 113.892 251.7 113.996 252.229 113.996C252.757 113.996 253.28 113.892 253.768 113.69C254.256 113.487 254.699 113.191 255.072 112.818C255.446 112.444 255.742 112.001 255.944 111.513C256.146 111.025 256.25 110.501 256.25 109.973V80.3202C256.25 72.898 253.301 65.7801 248.054 60.532C242.807 55.284 235.69 52.3357 228.27 52.3357Z" fill="#2F3133"/>
<path d="M192.578 80.3225H191.213C191.219 72.717 194.242 65.4248 199.619 60.0469C204.995 54.6691 212.286 51.6452 219.89 51.6392V53.0164C212.649 53.0194 205.706 55.897 200.585 61.0169C195.464 66.1368 192.584 73.0803 192.578 80.3225Z" fill="#2F3133"/>
<path d="M228.27 51.6482H219.872V53.0232H228.27V51.6482Z" fill="#2F3133"/>
<path d="M200.624 106.909H199.249V116.17H200.624V106.909Z" fill="#2F3133"/>
<path d="M216.712 108.409H215.338V113.798H216.712V108.409Z" fill="#2F3133"/>
<path d="M216.712 89.5557H215.338V99.0803H216.712V89.5557Z" fill="#2F3133"/>
<path d="M208.667 102.573H207.292V113.8H208.667V102.573Z" fill="#2F3133"/>
<path d="M232.803 103.847H231.429V113.798H232.803V103.847Z" fill="#2F3133"/>
<path d="M240.847 108.823H239.472V113.8H240.847V108.823Z" fill="#2F3133"/>
<path d="M240.847 89.5557H239.472V100.009H240.847V89.5557Z" fill="#2F3133"/>
<path d="M200.624 95.0327H199.249V102.57H200.624V95.0327Z" fill="#2F3133"/>
<path d="M224.756 120.882H223.381V124.119H224.756V120.882Z" fill="#2F3133"/>
<path d="M224.756 99.0803H223.381V109.051H224.756V99.0803Z" fill="#2F3133"/>
<path d="M248.892 103.847H247.517V109.971H248.892V103.847Z" fill="#2F3133"/>
<path d="M133.511 55.9805C132.904 55.9802 132.303 56.0995 131.743 56.3315C131.183 56.5635 130.673 56.9037 130.245 57.3327C129.816 57.7616 129.476 58.271 129.244 58.8315C129.012 59.392 128.892 59.9928 128.893 60.5994V69.052C126.73 68.0141 124.363 67.4741 121.965 67.472C119.845 67.472 117.746 67.8896 115.788 68.7009C113.83 69.5123 112.05 70.7015 110.551 72.2006C109.052 73.6998 107.864 75.4796 107.052 77.4384C106.241 79.3971 105.824 81.4966 105.824 83.6167C105.824 85.7368 106.241 87.8362 107.052 89.7949C107.864 91.7537 109.052 93.5335 110.551 95.0326C112.05 96.5318 113.83 97.721 115.788 98.5324C117.746 99.3437 119.845 99.7613 121.965 99.7613L132.832 95.5544C134.496 94.0431 135.824 92.2 136.733 90.1439C137.641 88.0879 138.109 85.8645 138.106 83.6167H138.131V60.5994C138.131 59.9926 138.011 59.3919 137.779 58.8314C137.547 58.2708 137.206 57.7615 136.777 57.3326C136.348 56.9036 135.839 56.5635 135.278 56.3315C134.718 56.0995 134.117 55.9802 133.511 55.9805V55.9805Z" fill="#FFBBB3"/>
<path d="M188.728 162.636H260.629C265.091 162.636 269.37 164.409 272.525 167.565C275.68 170.721 277.453 175.001 277.453 179.464V249.312H171.904V179.464C171.904 177.254 172.339 175.066 173.184 173.024C174.03 170.983 175.269 169.128 176.831 167.565C178.394 166.003 180.248 164.763 182.289 163.917C184.331 163.072 186.518 162.636 188.728 162.636V162.636Z" fill="#8CBDD0"/>
<path d="M252.038 162.636H197.322C190.581 162.636 184.117 165.314 179.35 170.081C174.583 174.848 171.905 181.313 171.904 188.055V192.428C171.904 185.686 174.583 179.22 179.349 174.453C184.116 169.685 190.581 167.007 197.322 167.007H252.038C255.375 167.007 258.68 167.665 261.764 168.942C264.847 170.22 267.649 172.092 270.009 174.453C272.369 176.814 274.241 179.616 275.518 182.7C276.796 185.784 277.453 189.09 277.453 192.428V188.055C277.452 181.314 274.774 174.848 270.008 170.081C265.242 165.315 258.778 162.636 252.038 162.636V162.636Z" fill="white"/>
<path d="M181.883 115.321H181.326C180.653 115.32 179.982 115.265 179.318 115.157C179.049 115.112 178.807 114.962 178.648 114.74C178.488 114.518 178.423 114.241 178.467 113.971C178.512 113.701 178.662 113.46 178.884 113.3C179.106 113.14 179.383 113.075 179.653 113.119C180.206 113.211 180.765 113.256 181.326 113.256H181.883C182.157 113.256 182.419 113.365 182.613 113.558C182.806 113.751 182.914 114.014 182.914 114.287C182.915 114.423 182.888 114.557 182.837 114.683C182.785 114.808 182.709 114.922 182.613 115.018C182.518 115.114 182.404 115.19 182.279 115.242C182.153 115.294 182.019 115.321 181.883 115.321V115.321ZM176.23 114.107C176.072 114.106 175.916 114.067 175.775 113.994C174.994 113.598 174.257 113.12 173.579 112.566C173.473 112.481 173.386 112.376 173.321 112.256C173.257 112.137 173.216 112.006 173.202 111.871C173.188 111.736 173.201 111.6 173.24 111.47C173.279 111.34 173.343 111.219 173.428 111.114C173.601 110.902 173.851 110.768 174.123 110.74C174.394 110.712 174.666 110.793 174.878 110.966C175.442 111.425 176.052 111.823 176.699 112.154C176.82 112.215 176.928 112.3 177.016 112.402C177.104 112.505 177.171 112.624 177.214 112.753C177.256 112.882 177.273 113.018 177.262 113.153C177.252 113.288 177.215 113.42 177.154 113.541C177.068 113.711 176.935 113.855 176.772 113.955C176.609 114.055 176.421 114.108 176.23 114.107ZM171.906 110.26C171.736 110.261 171.568 110.22 171.418 110.141C171.268 110.062 171.14 109.946 171.045 109.805C170.562 109.074 170.156 108.294 169.837 107.478C169.738 107.223 169.744 106.939 169.854 106.689C169.964 106.438 170.169 106.242 170.424 106.142C170.55 106.093 170.685 106.069 170.821 106.072C170.956 106.075 171.09 106.104 171.214 106.159C171.338 106.213 171.45 106.292 171.544 106.39C171.638 106.488 171.711 106.603 171.76 106.729C172.025 107.409 172.361 108.058 172.764 108.667C172.839 108.779 172.891 108.906 172.917 109.039C172.943 109.172 172.942 109.309 172.915 109.441C172.888 109.574 172.836 109.7 172.76 109.813C172.685 109.925 172.588 110.021 172.475 110.096C172.309 110.204 172.115 110.26 171.917 110.26H171.906ZM170.058 104.785C169.796 104.785 169.545 104.685 169.354 104.505C169.163 104.326 169.048 104.081 169.031 103.82C169.013 103.549 169.004 103.276 169.004 103.007V101.346C169.004 101.072 169.113 100.81 169.306 100.616C169.499 100.423 169.761 100.314 170.035 100.314C170.308 100.314 170.571 100.423 170.764 100.616C170.957 100.81 171.066 101.072 171.066 101.346V103.007C171.066 103.235 171.066 103.463 171.089 103.69C171.106 103.963 171.015 104.232 170.834 104.438C170.654 104.644 170.399 104.77 170.126 104.788L170.058 104.785ZM170.035 98.9393C169.899 98.9393 169.765 98.9126 169.64 98.8606C169.515 98.8087 169.401 98.7326 169.305 98.6366C169.209 98.5406 169.133 98.4266 169.082 98.3012C169.03 98.1758 169.004 98.0415 169.004 97.9059V95.4997C169.004 95.2262 169.113 94.9639 169.306 94.7705C169.499 94.5771 169.761 94.4685 170.035 94.4685C170.308 94.4685 170.571 94.5771 170.764 94.7705C170.957 94.9639 171.066 95.2262 171.066 95.4997V97.9082C171.066 98.1797 170.959 98.4403 170.768 98.6333C170.577 98.8264 170.318 98.9363 170.046 98.9393H170.035ZM170.035 93.0935C169.899 93.0935 169.765 93.0668 169.64 93.0148C169.515 92.9628 169.401 92.8866 169.305 92.7906C169.209 92.6946 169.133 92.5806 169.082 92.4552C169.03 92.3299 169.004 92.1956 169.004 92.06V89.6538C169.004 89.3803 169.113 89.1179 169.306 88.9245C169.499 88.7311 169.761 88.6225 170.035 88.6225C170.308 88.6225 170.571 88.7311 170.764 88.9245C170.957 89.1179 171.066 89.3803 171.066 89.6538V92.06C171.067 92.3319 170.96 92.593 170.769 92.7866C170.578 92.9801 170.318 93.0905 170.046 93.0935H170.035ZM170.035 87.2453C169.761 87.2453 169.499 87.1366 169.306 86.9432C169.113 86.7498 169.004 86.4875 169.004 86.214V83.8078C169.004 83.6722 169.03 83.5378 169.082 83.4124C169.133 83.2871 169.209 83.1731 169.305 83.0771C169.401 82.9811 169.515 82.905 169.64 82.853C169.765 82.801 169.899 82.7743 170.035 82.7743C170.171 82.7743 170.305 82.801 170.43 82.853C170.555 82.905 170.669 82.9811 170.765 83.0771C170.861 83.1731 170.936 83.2871 170.988 83.4124C171.04 83.5378 171.066 83.6722 171.066 83.8078V86.214C171.066 86.4855 170.959 86.7461 170.768 86.9392C170.577 87.1322 170.318 87.2423 170.046 87.2453H170.035ZM170.035 81.3993C169.761 81.3993 169.499 81.2907 169.306 81.0973C169.113 80.9039 169.004 80.6416 169.004 80.3681V77.9596C169.004 77.6861 169.113 77.4238 169.306 77.2305C169.499 77.0371 169.761 76.9283 170.035 76.9283C170.308 76.9283 170.571 77.0371 170.764 77.2305C170.957 77.4238 171.066 77.6861 171.066 77.9596V80.3795C171.063 80.649 170.955 80.9067 170.764 81.0973C170.573 81.2879 170.316 81.3964 170.046 81.3993H170.035ZM170.035 75.5533C169.761 75.5533 169.499 75.4447 169.306 75.2513C169.113 75.0579 169.004 74.7957 169.004 74.5222V72.1137C169.004 71.8402 169.113 71.5779 169.306 71.3845C169.499 71.1911 169.761 71.0825 170.035 71.0825C170.308 71.0825 170.571 71.1911 170.764 71.3845C170.957 71.5779 171.066 71.8402 171.066 72.1137V74.5222C171.066 74.7937 170.959 75.0543 170.768 75.2473C170.577 75.4404 170.318 75.5504 170.046 75.5533H170.035ZM170.035 69.7075C169.761 69.7075 169.499 69.5988 169.306 69.4054C169.113 69.212 169.004 68.9497 169.004 68.6762V66.2655C169.004 65.992 169.113 65.7297 169.306 65.5363C169.499 65.3429 169.761 65.2343 170.035 65.2343C170.308 65.2343 170.571 65.3429 170.764 65.5363C170.957 65.7297 171.066 65.992 171.066 66.2655V68.674C171.067 68.9459 170.96 69.207 170.769 69.4006C170.578 69.5942 170.318 69.7045 170.046 69.7075H170.035ZM170.035 63.8615C169.899 63.8615 169.765 63.8348 169.64 63.7828C169.515 63.7309 169.401 63.6547 169.305 63.5587C169.209 63.4627 169.133 63.3488 169.082 63.2234C169.03 63.098 169.004 62.9636 169.004 62.828V60.4218C169.004 60.1483 169.113 59.886 169.306 59.6927C169.499 59.4993 169.761 59.3905 170.035 59.3905C170.308 59.3905 170.571 59.4993 170.764 59.6927C170.957 59.886 171.066 60.1483 171.066 60.4218V62.828C171.067 63.0999 170.96 63.3612 170.769 63.5547C170.578 63.7483 170.318 63.8585 170.046 63.8615H170.035ZM170.035 58.0133C169.761 58.0133 169.499 57.9047 169.306 57.7113C169.113 57.5179 169.004 57.2556 169.004 56.9821V54.5759C169.004 54.3024 169.113 54.0401 169.306 53.8467C169.499 53.6533 169.761 53.5447 170.035 53.5447C170.308 53.5447 170.571 53.6533 170.764 53.8467C170.957 54.0401 171.066 54.3024 171.066 54.5759V56.9821C171.066 57.2537 170.959 57.5142 170.768 57.7073C170.577 57.9004 170.318 58.0103 170.046 58.0133H170.035Z" fill="#206C00"/>
<path d="M266.815 115.321H266.255C266.12 115.321 265.986 115.294 265.86 115.242C265.735 115.19 265.621 115.114 265.526 115.018C265.43 114.922 265.354 114.808 265.302 114.683C265.251 114.557 265.224 114.423 265.224 114.287C265.224 114.014 265.333 113.751 265.526 113.558C265.72 113.365 265.982 113.256 266.255 113.256H266.815C267.376 113.256 267.935 113.211 268.488 113.119C268.758 113.076 269.034 113.141 269.256 113.301C269.477 113.46 269.627 113.701 269.672 113.971C269.694 114.105 269.689 114.241 269.658 114.374C269.628 114.506 269.571 114.63 269.492 114.74C269.413 114.851 269.313 114.944 269.198 115.016C269.082 115.087 268.954 115.135 268.82 115.157C268.157 115.265 267.487 115.32 266.815 115.321V115.321ZM271.909 114.107C271.72 114.106 271.535 114.052 271.374 113.952C271.214 113.852 271.084 113.709 270.998 113.541C270.937 113.42 270.9 113.288 270.89 113.153C270.88 113.018 270.896 112.882 270.939 112.753C270.981 112.624 271.048 112.505 271.137 112.402C271.225 112.3 271.333 112.215 271.454 112.154C272.101 111.824 272.711 111.425 273.274 110.966C273.487 110.793 273.759 110.712 274.031 110.74C274.303 110.767 274.553 110.902 274.726 111.114C274.899 111.326 274.98 111.599 274.952 111.871C274.923 112.143 274.788 112.393 274.576 112.566C273.897 113.12 273.16 113.599 272.378 113.994C272.233 114.069 272.072 114.108 271.909 114.107V114.107ZM276.222 110.26C276.02 110.261 275.823 110.201 275.655 110.089C275.542 110.015 275.445 109.918 275.369 109.806C275.293 109.694 275.24 109.568 275.213 109.435C275.186 109.302 275.185 109.165 275.211 109.032C275.237 108.899 275.289 108.773 275.364 108.66C275.766 108.052 276.103 107.402 276.367 106.723C276.416 106.596 276.49 106.481 276.584 106.383C276.677 106.285 276.79 106.206 276.914 106.152C277.038 106.097 277.171 106.068 277.307 106.065C277.442 106.062 277.577 106.086 277.703 106.135C277.83 106.184 277.945 106.258 278.043 106.352C278.141 106.445 278.219 106.558 278.274 106.682C278.329 106.806 278.358 106.939 278.361 107.075C278.364 107.21 278.34 107.345 278.291 107.471C277.972 108.288 277.568 109.068 277.084 109.798C276.99 109.94 276.862 110.057 276.711 110.138C276.561 110.218 276.392 110.26 276.222 110.26V110.26ZM278.07 104.785H278.002C277.729 104.767 277.474 104.642 277.293 104.436C277.113 104.23 277.021 103.961 277.039 103.688C277.055 103.46 277.062 103.233 277.062 103.005V101.346C277.062 101.072 277.17 100.81 277.364 100.616C277.557 100.423 277.819 100.314 278.093 100.314C278.228 100.314 278.362 100.341 278.488 100.392C278.613 100.444 278.727 100.52 278.823 100.616C278.919 100.711 278.995 100.825 279.047 100.95C279.099 101.076 279.126 101.21 279.126 101.346V103.007C279.126 103.281 279.126 103.554 279.099 103.82C279.081 104.081 278.965 104.326 278.774 104.506C278.583 104.685 278.332 104.785 278.07 104.785V104.785ZM278.093 98.9393C277.957 98.9393 277.823 98.9126 277.697 98.8606C277.572 98.8087 277.458 98.7326 277.363 98.6366C277.267 98.5406 277.191 98.4266 277.139 98.3012C277.088 98.1758 277.061 98.0416 277.062 97.9059V95.4997C277.062 95.2262 277.17 94.9639 277.364 94.7705C277.557 94.5771 277.819 94.4685 278.093 94.4685C278.228 94.4682 278.362 94.4946 278.488 94.5463C278.613 94.598 278.727 94.6739 278.823 94.7697C278.919 94.8655 278.995 94.9792 279.047 95.1045C279.099 95.2298 279.126 95.364 279.126 95.4997V97.9082C279.125 98.1819 279.016 98.4441 278.822 98.6374C278.629 98.8308 278.366 98.9393 278.093 98.9393V98.9393ZM278.093 93.0935C277.957 93.0935 277.823 93.0668 277.697 93.0148C277.572 92.9628 277.458 92.8866 277.363 92.7906C277.267 92.6946 277.191 92.5806 277.139 92.4552C277.088 92.3299 277.061 92.1956 277.062 92.06V89.6538C277.062 89.3803 277.17 89.1179 277.364 88.9245C277.557 88.7311 277.819 88.6225 278.093 88.6225C278.228 88.6222 278.362 88.6486 278.488 88.7003C278.613 88.752 278.727 88.8279 278.823 88.9237C278.919 89.0195 278.995 89.1333 279.047 89.2585C279.099 89.3838 279.126 89.5182 279.126 89.6538V92.06C279.126 92.1957 279.099 92.3301 279.047 92.4555C278.995 92.5808 278.919 92.6948 278.823 92.7908C278.727 92.8868 278.613 92.9628 278.488 93.0148C278.363 93.0667 278.228 93.0935 278.093 93.0935V93.0935ZM278.093 87.2453C277.819 87.2453 277.557 87.1366 277.364 86.9432C277.17 86.7498 277.062 86.4875 277.062 86.214V83.8078C277.061 83.6722 277.088 83.5378 277.139 83.4124C277.191 83.2871 277.267 83.1731 277.363 83.0771C277.458 82.9811 277.572 82.905 277.697 82.853C277.823 82.801 277.957 82.7743 278.093 82.7743C278.367 82.7743 278.629 82.8832 278.823 83.077C279.017 83.2708 279.126 83.5337 279.126 83.8078V86.214C279.126 86.3496 279.099 86.4839 279.047 86.6092C278.995 86.7344 278.919 86.8483 278.823 86.9441C278.727 87.0399 278.613 87.1157 278.488 87.1674C278.362 87.2191 278.228 87.2456 278.093 87.2453V87.2453ZM278.093 81.3993C277.819 81.3993 277.557 81.2907 277.364 81.0973C277.17 80.9039 277.062 80.6416 277.062 80.3681V77.9596C277.062 77.6861 277.17 77.4238 277.364 77.2305C277.557 77.0371 277.819 76.9283 278.093 76.9283C278.228 76.928 278.362 76.9546 278.488 77.0063C278.613 77.0579 278.727 77.1338 278.823 77.2296C278.919 77.3254 278.995 77.4392 279.047 77.5645C279.099 77.6897 279.126 77.824 279.126 77.9596V80.3795C279.123 80.6514 279.013 80.9111 278.819 81.1021C278.626 81.2931 278.364 81.3999 278.093 81.3993ZM278.093 75.5534C277.819 75.5534 277.557 75.4447 277.364 75.2513C277.17 75.0579 277.062 74.7957 277.062 74.5222V72.1137C277.062 71.8402 277.17 71.5779 277.364 71.3845C277.557 71.1911 277.819 71.0825 278.093 71.0825C278.228 71.0822 278.362 71.1086 278.488 71.1603C278.613 71.212 278.727 71.2879 278.823 71.3837C278.919 71.4795 278.995 71.5932 279.047 71.7185C279.099 71.8438 279.126 71.978 279.126 72.1137V74.5222C279.126 74.6578 279.099 74.7921 279.047 74.9173C278.995 75.0426 278.919 75.1563 278.823 75.2521C278.727 75.3479 278.613 75.4239 278.488 75.4755C278.362 75.5272 278.228 75.5537 278.093 75.5534V75.5534ZM278.093 69.7075C277.819 69.7075 277.557 69.5988 277.364 69.4054C277.17 69.212 277.062 68.9497 277.062 68.6762V66.2655C277.062 65.992 277.17 65.7297 277.364 65.5363C277.557 65.3429 277.819 65.2343 278.093 65.2343C278.228 65.234 278.362 65.2604 278.488 65.3121C278.613 65.3638 278.727 65.4397 278.823 65.5355C278.919 65.6313 278.995 65.7451 279.047 65.8703C279.099 65.9956 279.126 66.1299 279.126 66.2655V68.674C279.126 68.8098 279.1 68.9443 279.048 69.0698C278.996 69.1953 278.92 69.3093 278.824 69.4054C278.728 69.5014 278.614 69.5775 278.488 69.6294C278.363 69.6812 278.228 69.7078 278.093 69.7075V69.7075ZM278.093 63.8615C277.957 63.8615 277.823 63.8348 277.697 63.7828C277.572 63.7309 277.458 63.6547 277.363 63.5587C277.267 63.4627 277.191 63.3488 277.139 63.2234C277.088 63.098 277.061 62.9636 277.062 62.828V60.4218C277.062 60.1483 277.17 59.8861 277.364 59.6927C277.557 59.4993 277.819 59.3905 278.093 59.3905C278.228 59.3902 278.362 59.4168 278.488 59.4685C278.613 59.5201 278.727 59.596 278.823 59.6918C278.919 59.7876 278.995 59.9014 279.047 60.0267C279.099 60.1519 279.126 60.2862 279.126 60.4218V62.828C279.126 62.9637 279.099 63.0981 279.047 63.2235C278.995 63.3489 278.919 63.4629 278.823 63.5588C278.727 63.6548 278.613 63.7309 278.488 63.7828C278.363 63.8348 278.228 63.8615 278.093 63.8615V63.8615ZM278.093 58.0133C277.819 58.0133 277.557 57.9047 277.364 57.7113C277.17 57.5179 277.062 57.2556 277.062 56.9821V54.5759C277.062 54.3024 277.17 54.0401 277.364 53.8467C277.557 53.6533 277.819 53.5447 278.093 53.5447C278.228 53.5444 278.362 53.5708 278.488 53.6225C278.613 53.6742 278.727 53.7501 278.823 53.8459C278.919 53.9417 278.995 54.0554 279.047 54.1807C279.099 54.306 279.126 54.4402 279.126 54.5759V56.9821C279.126 57.1178 279.099 57.252 279.047 57.3773C278.995 57.5026 278.919 57.6163 278.823 57.7121C278.727 57.8079 278.613 57.8838 278.488 57.9355C278.362 57.9872 278.228 58.0136 278.093 58.0133V58.0133Z" fill="#206C00"/>
<path d="M194.83 21.8174H145.266V55.3177H194.83V21.8174Z" fill="#F7E057"/>
<path d="M194.827 21.8174L174.608 39.6192H165.486L145.266 21.8174H194.827Z" fill="#F0CA46"/>
<path d="M194.83 21.8175H145.266L170.047 0L194.83 21.8175Z" fill="#F7E057"/>
<path d="M188.074 5.2085V27.7613L174.605 39.6194H165.485L151.577 27.3766V5.2085H188.074Z" fill="white"/>
<path d="M182.915 21.0413H156.623V22.0725H182.915V21.0413Z" fill="#8CBDD0"/>
<path d="M182.915 9.12866H156.623V10.1599H182.915V9.12866Z" fill="#8CBDD0"/>
<path d="M183.026 26.999H156.623V28.0303H183.026V26.999Z" fill="#8CBDD0"/>
<path d="M182.915 15.0859H156.623V16.1172H182.915V15.0859Z" fill="#8CBDD0"/>
<path d="M179.499 32.9561H160.44V33.9873H179.499V32.9561Z" fill="#8CBDD0"/>
<path d="M251.723 55.3179L301.287 55.3179V21.8176L251.723 21.8176V55.3179Z" fill="#F7E057"/>
<path d="M276.504 42.9688L253.046 22.3174H299.962L276.504 42.9688Z" fill="white" stroke="#FDFDFD"/>
<path d="M69.3429 248.625H14.2263V250H69.3429V248.625Z" fill="#8CBDD0"/>
<path d="M384.773 248.625H73.2688V250H384.773V248.625Z" fill="#8CBDD0"/>
<path d="M35.3514 248.625C35.3514 248.807 35.3514 248.985 35.3514 249.158L35.2695 248.798L35.2285 248.625H35.3514Z" fill="#8CBDD0"/>
</svg>
