<svg width="418" height="300" viewBox="0 0 418 300" fill="none" xmlns="http://www.w3.org/2000/svg">
<g clip-path="url(#clip0)">
<path d="M35.5238 154.465C-5.63595 152.147 -11.6623 102.18 20.7873 83.3686C47.6985 67.7538 90.2489 76.3175 118.087 76.0491C159.589 75.6344 180.449 48.284 216.192 33.8403C251.448 19.5917 268.917 32.2788 295.56 55.1399C319.738 75.8783 345.478 81.8559 373.292 93.1035C399.008 103.497 418.063 120.966 417.453 152.733C416.819 185.743 384.32 196.869 358.117 198.04C328.18 199.382 299.463 198.992 270.893 208.019C228.099 221.511 185.182 224.976 142.51 210.727C120.551 203.408 109.06 193.99 89.7609 181.01C75 171.08 50.4311 155.319 35.5238 154.465Z" fill="#E4F5FD"/>
<path d="M253 295C290.003 295 320 287.837 320 279C320 270.163 290.003 263 253 263C215.997 263 186 270.163 186 279C186 287.837 215.997 295 253 295Z" fill="#E4F5FD"/>
<path d="M345.401 143.643H339.888C339.376 143.643 338.957 144.062 338.957 144.574V149.593H346.332V144.574C346.332 144.062 345.913 143.643 345.401 143.643Z" fill="#248BC3"/>
<path d="M347.747 143H337.532C337.02 143 336.601 143.419 336.601 143.931V145.458H348.678V143.931C348.678 143.419 348.259 143 347.747 143Z" fill="#D1E5FD"/>
<path d="M342.635 220.043C362.316 220.043 378.27 204.089 378.27 184.408C378.27 164.728 362.316 148.773 342.635 148.773C322.954 148.773 307 164.728 307 184.408C307 204.089 322.954 220.043 342.635 220.043Z" fill="#E2F5FC"/>
<path d="M342.635 217.669C361.004 217.669 375.896 202.777 375.896 184.408C375.896 166.039 361.004 151.147 342.635 151.147C324.266 151.147 309.375 166.039 309.375 184.408C309.375 202.777 324.266 217.669 342.635 217.669Z" fill="white"/>
<path d="M342.635 154.816V152.814" stroke="#227AAF" stroke-miterlimit="10" stroke-linecap="round" stroke-linejoin="round"/>
<path d="M321.712 163.486L320.297 162.07" stroke="#227AAF" stroke-miterlimit="10" stroke-linecap="round" stroke-linejoin="round"/>
<path d="M313.043 184.408H311.041" stroke="#227AAF" stroke-miterlimit="10" stroke-linecap="round" stroke-linejoin="round"/>
<path d="M321.712 205.34L320.297 206.756" stroke="#227AAF" stroke-miterlimit="10" stroke-linecap="round" stroke-linejoin="round"/>
<path d="M342.635 214.009V216.011" stroke="#227AAF" stroke-miterlimit="10" stroke-linecap="round" stroke-linejoin="round"/>
<path d="M333.389 194.697C333.249 194.697 333.109 194.651 333.007 194.548C332.783 194.334 332.774 193.98 332.988 193.757L342.16 184.073L350.363 162.563C350.475 162.275 350.801 162.135 351.08 162.238C351.369 162.349 351.509 162.666 351.406 162.955L343.156 184.566C343.128 184.632 343.091 184.697 343.045 184.753L333.789 194.52C333.677 194.641 333.538 194.697 333.389 194.697Z" fill="#185A8D" stroke="#227AAF" stroke-miterlimit="10"/>
<path d="M342.635 186.848C343.982 186.848 345.075 185.756 345.075 184.408C345.075 183.061 343.982 181.969 342.635 181.969C341.288 181.969 340.195 183.061 340.195 184.408C340.195 185.756 341.288 186.848 342.635 186.848Z" fill="#D1E5FD" stroke="#227AAF" stroke-miterlimit="10"/>
<path d="M363.567 205.34L364.983 206.756" stroke="#227AAF" stroke-miterlimit="10" stroke-linecap="round" stroke-linejoin="round"/>
<path d="M372.236 184.408H374.238" stroke="#227AAF" stroke-miterlimit="10" stroke-linecap="round" stroke-linejoin="round"/>
<path d="M363.567 163.486L364.983 162.07" stroke="#227AAF" stroke-miterlimit="10" stroke-linecap="round" stroke-linejoin="round"/>
<path d="M181.066 92.0782C181.67 91.9716 182.168 92.2204 182.381 92.6825C182.452 92.8247 182.488 92.967 182.452 93.1447L181.35 126.206C181.315 126.917 180.675 127.592 179.857 127.735H179.75L164.677 130.116C164.322 130.188 164.037 130.116 163.789 129.974C163.575 129.868 163.398 129.654 163.326 129.441C163.291 129.334 163.255 129.192 163.255 129.05L164.357 95.9887C164.393 95.2777 165.033 94.6022 165.851 94.46L181.066 92.0782Z" fill="#6ABCD1"/>
<path d="M215.194 55.8528C216.118 55.7106 216.829 56.4572 216.793 57.5237C216.758 58.5901 215.976 59.5855 215.087 59.7277L157.141 68.8996C156.217 69.0418 155.506 68.2952 155.541 67.2287C155.577 66.1622 156.359 65.1668 157.248 65.0246L215.194 55.8528Z" fill="#89B9CC"/>
<path d="M155.47 101.18C155.542 101.286 155.577 101.428 155.542 101.571L154.582 130.579C154.546 131.184 153.906 131.824 153.089 131.93H152.982L137.909 134.312C137.696 134.348 137.518 134.348 137.34 134.312C136.878 134.205 136.558 133.921 136.522 133.494L137.376 107.792C140.006 106.05 142.53 104.095 145.09 102.068L154.155 100.646C154.759 100.575 155.293 100.789 155.47 101.18Z" fill="#6ABCD1"/>
<path d="M137.376 107.862L136.523 133.494C136.523 133.529 136.523 133.529 136.523 133.565C136.451 133.387 136.416 133.174 136.451 132.925L137.269 107.933C137.305 107.898 137.34 107.862 137.376 107.862Z" fill="#89B9CC"/>
<path d="M112.1 138.471C112.029 138.471 111.922 138.506 111.851 138.471C111.957 138.471 112.064 138.471 112.206 138.435L112.1 138.471Z" fill="#89B9CC"/>
<path d="M119.885 113.834C119.529 114.19 119.103 114.474 118.641 114.545C118.178 114.617 117.752 114.51 117.396 114.226L119.885 113.834Z" fill="#ACCFDF"/>
<path d="M253.196 -2.94638C256.396 -3.44408 258.849 -0.422345 258.707 3.84363L254.796 121.442C254.689 124.5 253.267 127.344 251.312 128.908C250.53 129.512 249.677 129.939 248.788 130.081L91.5161 155.001C88.3166 155.499 85.8637 152.477 86.0059 148.211L89.9164 30.6126C89.9875 28.8351 90.4852 27.0932 91.3028 25.6712C92.4048 23.7159 94.1112 22.2939 95.9243 22.0096L253.196 -2.94638ZM233.644 118.243L234.462 93.2513C234.462 93.1091 234.426 93.0024 234.355 92.8958L234.995 73.8767C235.03 72.9524 234.391 72.2769 233.608 72.4191L218.429 74.8365C217.647 74.9787 216.971 75.8319 216.936 76.7562L216.26 96.9485C213.203 98.7615 210.679 99.7569 208.546 100.183L209.292 77.9649C209.328 77.0406 208.688 76.3652 207.906 76.5074L192.726 78.9247C191.944 79.0669 191.269 79.9201 191.233 80.8444L190.878 91.0472C187.998 88.9498 185.296 87.3145 182.595 86.2124L182.737 82.1598C182.772 81.2355 182.132 80.56 181.35 80.7022L166.171 83.1196C165.388 83.2618 164.713 84.115 164.677 85.0393L164.606 86.7812C161.94 87.8833 159.025 89.4475 155.79 91.5093L155.968 86.4257C156.003 85.5014 155.363 84.826 154.581 84.9682L139.402 87.3856C138.62 87.5278 137.944 88.381 137.909 89.3053L137.375 105.018C134.887 106.725 132.363 108.182 129.625 109.249L130.23 90.514C130.265 89.5897 129.625 88.9142 128.843 89.0564L113.664 91.4738C112.881 91.616 112.206 92.4692 112.171 93.3935L110.713 137.013C110.713 137.226 110.749 137.44 110.784 137.617C110.749 138.222 111.211 138.506 111.851 138.471L127.279 136.053C128.168 135.911 128.843 135.413 128.843 134.951L129.554 113.124L129.483 111.915C132.256 110.884 134.78 109.498 137.233 107.898L136.415 132.889C136.415 133.103 136.451 133.316 136.487 133.529C136.522 133.956 136.842 134.24 137.304 134.347C137.446 134.382 137.624 134.382 137.766 134.382L152.946 131.965C153.835 131.823 154.51 131.218 154.51 130.579L155.47 101.57C155.47 101.428 155.435 101.286 155.399 101.179L155.612 94.3889C158.883 92.2559 161.762 90.6562 164.429 89.5186L163.113 128.694C163.113 128.979 163.149 129.263 163.255 129.476C163.327 129.69 163.504 129.903 163.718 130.01C163.931 130.152 164.215 130.223 164.5 130.152L179.679 127.735C180.568 127.592 181.244 126.917 181.279 126.206L182.381 93.1446C182.381 92.9669 182.346 92.8247 182.31 92.6825L182.417 89.1986C185.047 90.4073 187.749 92.1492 190.7 94.3533L189.705 124.464C189.705 124.677 189.74 124.891 189.776 125.068V125.566C189.776 125.85 190.273 125.993 190.949 125.922L206.271 123.504C207.159 123.362 207.835 123.006 207.835 122.686L208.333 108.182L208.404 102.779C210.714 102.316 213.274 101.286 216.118 99.6858L215.443 120.34C215.443 120.554 215.478 120.767 215.514 120.945C215.514 121.478 215.905 121.762 216.509 121.798C216.616 121.798 216.722 121.798 216.829 121.798L232.009 119.38C232.969 119.309 233.644 118.776 233.644 118.243ZM129.163 30.4348C117.716 32.2479 108.047 44.6548 107.62 58.0926C107.158 71.5304 116.117 81.0222 127.564 79.2091C139.011 77.3961 148.68 64.9892 149.107 51.5514C149.533 38.078 140.61 28.6218 129.163 30.4348ZM158.385 37.4026C156.892 37.6515 155.648 39.2512 155.612 40.9576C155.541 42.6995 156.714 43.9082 158.172 43.6949L195.535 37.7581C197.028 37.5093 198.272 35.9451 198.308 34.2031C198.379 32.4612 197.206 31.2525 195.748 31.4658L158.385 37.4026ZM217.113 47.6054C217.149 46.5389 216.438 45.7924 215.514 45.9346L157.568 55.1064C156.643 55.2486 155.897 56.244 155.861 57.3105C155.826 58.377 156.537 59.1235 157.461 58.9813L215.407 49.8095C216.296 49.6673 217.078 48.6719 217.113 47.6054ZM216.793 57.5238C216.829 56.4573 216.118 55.7107 215.194 55.8529L157.248 65.0248C156.323 65.167 155.577 66.1624 155.541 67.2289C155.506 68.2954 156.217 69.0419 157.141 68.8997L215.087 59.7279C215.976 59.5857 216.758 58.5903 216.793 57.5238Z" fill="#FAFAFA"/>
<path d="M227.707 90.0878C227.636 89.9456 227.53 89.8034 227.388 89.7323C227.139 89.3768 226.996 88.9146 227.032 88.3814C227.068 87.066 228.027 85.8574 229.129 85.6796C230.231 85.5019 231.12 86.4261 231.085 87.7415C231.049 89.0568 230.089 90.2655 228.987 90.4433C228.489 90.5144 228.027 90.3722 227.707 90.0878Z" fill="#89B9CC"/>
<path d="M234.391 92.8963C234.462 93.0029 234.498 93.1096 234.498 93.2518L233.68 118.243C233.644 118.777 233.004 119.31 232.222 119.452H232.116L217.043 121.834C216.9 121.869 216.758 121.869 216.616 121.869C216.047 121.834 215.621 121.549 215.621 121.087V120.981L216.332 99.6507C218.962 98.1577 221.877 96.2024 225.041 93.7495L233.147 92.4697C233.68 92.4341 234.178 92.5763 234.391 92.8963Z" fill="#ACCFDF"/>
<path d="M215.513 120.375L216.189 99.721C216.225 99.6855 216.26 99.6855 216.296 99.6499L215.585 120.98C215.513 120.802 215.478 120.624 215.513 120.375Z" fill="#89B9CC"/>
<path d="M217.896 94.922L219.958 94.6021C218.678 95.4908 217.505 96.2374 216.403 96.8772L216.438 96.0951C216.438 95.5975 217.078 95.0287 217.896 94.922Z" fill="#ACCFDF"/>
<path d="M233.644 72.4193C234.426 72.2771 235.066 72.9526 235.031 73.8769L234.391 92.896C234.177 92.5761 233.68 92.3983 233.075 92.505L224.97 93.7848C225.539 93.3582 226.108 92.896 226.676 92.4339C227.281 92.8249 228.027 92.9671 228.845 92.8605C231.085 92.505 233.004 90.052 233.075 87.4213C233.146 84.7907 231.405 82.9065 229.165 83.262C226.925 83.6175 225.006 86.0705 224.934 88.7012C224.899 89.4121 225.006 90.052 225.219 90.6208C223.299 92.1495 221.557 93.4648 219.922 94.6024L217.86 94.9224C217.078 95.0646 216.402 95.5978 216.402 96.1311L216.367 96.9131C216.331 96.9487 216.296 96.9487 216.26 96.9843L216.936 76.792C216.971 75.8677 217.647 74.9789 218.429 74.8723L233.644 72.4193Z" fill="#89B9CC"/>
<path d="M191.162 125.922C191.126 125.922 191.055 125.922 191.02 125.922C191.091 125.922 191.162 125.922 191.269 125.887L191.162 125.922Z" fill="#89B9CC"/>
<path d="M206.235 103.099C206.733 103.064 207.231 103.028 207.764 102.957C208.013 102.922 208.226 102.886 208.475 102.815L208.297 108.005C208.084 107.827 207.586 107.756 206.982 107.863L191.802 110.28C191.02 110.422 190.345 110.778 190.345 111.062L189.882 125.069C189.811 124.891 189.811 124.678 189.811 124.465L190.807 94.354C192.122 95.3494 193.473 96.4514 194.895 97.6246C195.286 97.9445 195.677 98.2645 196.068 98.62C198.557 100.824 201.436 103.348 206.235 103.099Z" fill="#89B9CC"/>
<path d="M206.982 107.862C207.586 107.755 208.12 107.827 208.297 108.004C208.368 108.075 208.404 108.111 208.404 108.182L207.906 122.686C207.906 123.006 207.231 123.362 206.449 123.468H206.342L191.269 125.85C191.198 125.85 191.091 125.886 191.02 125.886C190.345 125.957 189.847 125.815 189.847 125.53V125.033L190.309 111.026C190.309 110.706 190.985 110.351 191.767 110.244L206.982 107.862Z" fill="#6ABCD1"/>
<path d="M207.906 76.5077C208.688 76.3655 209.328 77.041 209.293 77.9653L208.546 100.184C208.333 100.219 208.12 100.255 207.906 100.291C202.965 101.073 200.227 98.6908 197.526 96.3445C197.135 95.989 196.744 95.6691 196.317 95.3136C194.397 93.7138 192.584 92.2919 190.842 91.0121L191.198 80.8092C191.233 79.8849 191.909 78.9962 192.691 78.8895L207.906 76.5077Z" fill="#EEE5A5"/>
<path d="M171.077 87.4926C171.859 87.3504 172.641 87.2793 173.387 87.2437C176.516 87.1015 179.466 87.777 182.488 89.1634L182.382 92.6473C182.168 92.2207 181.671 91.9718 181.066 92.0429L165.886 94.4603C165.104 94.6025 164.429 95.278 164.393 95.989L163.291 129.05C163.291 129.192 163.291 129.299 163.362 129.441C163.256 129.228 163.22 128.944 163.22 128.659L164.536 89.4833C166.882 88.488 169.015 87.8125 171.077 87.4926Z" fill="#89B9CC"/>
<path d="M137.838 134.383C137.66 134.418 137.518 134.418 137.375 134.347C137.553 134.383 137.767 134.383 137.944 134.347L137.838 134.383Z" fill="#89B9CC"/>
<path d="M145.09 102.104C145.161 102.033 145.232 101.997 145.303 101.926C149.178 98.9044 152.591 96.3803 155.719 94.354L155.506 101.144C155.293 100.753 154.795 100.54 154.191 100.646L145.09 102.104Z" fill="#89B9CC"/>
<path d="M138.975 103.099L140.326 102.886C139.366 103.597 138.442 104.308 137.482 104.948V104.45C137.518 103.81 138.193 103.206 138.975 103.099Z" fill="#ACCFDF"/>
<path d="M215.514 45.9344C216.438 45.7922 217.149 46.5387 217.114 47.6052C217.078 48.6717 216.296 49.6671 215.407 49.8093L157.461 58.9812C156.537 59.1234 155.826 58.3768 155.861 57.3103C155.897 56.2438 156.679 55.2484 157.568 55.1062L215.514 45.9344Z" fill="#89B9CC"/>
<path d="M154.581 84.9335C155.364 84.7913 156.003 85.4667 155.968 86.391L155.79 91.4747C152.377 93.6432 148.574 96.4161 144.272 99.7933C142.921 100.86 141.606 101.891 140.29 102.886L138.94 103.099C138.157 103.242 137.482 103.846 137.446 104.45V104.948C137.411 104.984 137.375 104.984 137.34 105.019L137.873 89.3061C137.909 88.3818 138.584 87.4931 139.366 87.3864L154.581 84.9335Z" fill="#EEE5A5"/>
<path d="M229.2 83.262C231.44 82.9065 233.218 84.7551 233.111 87.4214C233.04 90.052 231.12 92.505 228.88 92.8605C228.063 93.0027 227.316 92.8249 226.712 92.4339C226.143 92.896 225.574 93.3582 225.006 93.7848C221.842 96.2377 218.962 98.1929 216.296 99.686C213.345 101.321 210.786 102.352 208.475 102.814C208.226 102.85 208.013 102.921 207.764 102.957C207.231 103.028 206.733 103.099 206.235 103.099C201.436 103.312 198.557 100.824 196.033 98.6195C195.641 98.264 195.25 97.9441 194.859 97.6242C193.437 96.451 192.086 95.349 190.771 94.3536C187.856 92.1495 185.154 90.4075 182.488 89.1988C179.466 87.8124 176.516 87.137 173.387 87.2792C172.641 87.3147 171.859 87.3858 171.077 87.528C169.015 87.8479 166.846 88.4879 164.5 89.5188C161.834 90.6564 158.954 92.2561 155.683 94.3891C152.591 96.4155 149.142 98.9395 145.267 101.961C142.494 104.13 139.97 106.121 137.34 107.862C134.78 109.533 132.256 110.92 129.483 111.951C128.772 112.235 128.026 112.448 127.244 112.662C126.213 112.946 125.146 113.195 124.08 113.373C123.511 113.479 122.907 113.55 122.302 113.586C121.591 115.328 120.134 116.714 118.498 116.963C116.828 117.248 115.406 116.252 114.837 114.617C114.659 114.084 114.552 113.479 114.588 112.804C114.659 110.173 116.579 107.72 118.818 107.365C120.88 107.045 122.515 108.573 122.729 110.884C123.226 110.849 123.689 110.778 124.186 110.706C126.106 110.387 127.884 109.889 129.59 109.249C132.327 108.182 134.851 106.725 137.34 105.019C138.406 104.308 139.331 103.597 140.29 102.886C141.606 101.89 142.921 100.859 144.272 99.7927C148.573 96.4155 152.342 93.6781 155.79 91.474C159.025 89.4122 161.905 87.848 164.606 86.7459C166.953 85.7861 169.086 85.1462 171.183 84.8262C172.036 84.684 172.89 84.6129 173.743 84.5774C176.836 84.4352 179.715 85.004 182.63 86.2127C185.332 87.3147 188.034 88.95 190.913 91.0474C192.655 92.3272 194.468 93.7492 196.388 95.349C196.779 95.6689 197.206 96.0244 197.597 96.3799C200.298 98.7262 203 101.108 207.977 100.326C208.191 100.29 208.404 100.255 208.617 100.219C210.75 99.7927 213.274 98.7973 216.331 96.9843C217.54 96.2733 218.749 95.4912 219.993 94.638C221.628 93.5004 223.37 92.185 225.29 90.6564C225.077 90.0876 224.97 89.4477 225.006 88.7367C225.041 86.0705 226.961 83.6175 229.2 83.262ZM228.952 90.4431C230.054 90.2653 231.014 89.0567 231.049 87.7413C231.085 86.426 230.231 85.5017 229.094 85.6794C227.992 85.8572 227.032 87.0659 226.996 88.3812C226.996 88.9145 227.103 89.3766 227.352 89.7321C227.494 89.8032 227.601 89.9454 227.672 90.0876C228.027 90.372 228.489 90.5142 228.952 90.4431ZM119.885 113.835C120.382 113.337 120.702 112.591 120.738 111.844C120.774 110.529 119.92 109.604 118.783 109.782C117.681 109.96 116.721 111.169 116.685 112.484C116.65 113.231 116.934 113.87 117.396 114.226C117.716 114.475 118.143 114.617 118.641 114.546C119.103 114.475 119.529 114.19 119.885 113.835Z" fill="#A52860"/>
<path d="M128.168 112.52L127.279 112.662C128.026 112.449 128.772 112.2 129.519 111.951L129.483 112.84C129.305 112.556 128.772 112.413 128.168 112.52Z" fill="#89B9CC"/>
<path d="M195.748 31.5019C197.241 31.2531 198.379 32.4973 198.307 34.2393C198.236 35.9812 196.992 37.5809 195.535 37.7942L158.172 43.731C156.679 43.9799 155.541 42.7357 155.612 40.9937C155.683 39.2518 156.928 37.652 158.385 37.4387L195.748 31.5019Z" fill="#89B9CC"/>
<path d="M119.885 113.834L117.396 114.225C116.934 113.87 116.65 113.23 116.685 112.483C116.721 111.168 117.681 109.959 118.783 109.782C119.885 109.604 120.773 110.528 120.738 111.844C120.702 112.59 120.382 113.337 119.885 113.834Z" fill="#89B9CC"/>
<path d="M129.483 112.839C129.555 112.91 129.59 113.017 129.59 113.123L128.879 134.951C128.879 135.413 128.204 135.911 127.422 136.017H127.315L112.242 138.399C112.135 138.435 111.993 138.435 111.886 138.435C111.246 138.435 110.82 138.186 110.82 137.795V137.582L111.531 115.967C111.531 115.505 112.206 115.007 112.988 114.901L114.908 114.581C115.477 116.216 116.863 117.176 118.57 116.927C120.205 116.678 121.662 115.292 122.373 113.55C122.978 113.479 123.582 113.408 124.151 113.337C125.253 113.159 126.32 112.946 127.315 112.626L128.204 112.483C128.772 112.412 129.306 112.555 129.483 112.839Z" fill="#6ABCD1"/>
<path d="M128.844 89.0214C129.626 88.8792 130.266 89.5546 130.23 90.4789L129.626 109.214C127.919 109.854 126.142 110.387 124.222 110.671C123.76 110.742 123.262 110.813 122.765 110.849C122.587 108.538 120.916 107.01 118.854 107.33C116.614 107.685 114.695 110.138 114.624 112.769C114.588 113.444 114.695 114.048 114.872 114.582L112.953 114.902C112.171 115.044 111.495 115.506 111.495 115.968L110.784 137.582C110.713 137.405 110.713 137.191 110.713 136.978L112.171 93.3585C112.206 92.4342 112.882 91.5454 113.664 91.4388L128.844 89.0214Z" fill="#EEE5A5"/>
<path d="M127.741 72.9172C119.245 74.2681 112.597 67.2292 112.953 57.2398C113.273 47.2503 120.454 38.0429 128.95 36.692C137.446 35.3411 144.094 42.38 143.739 52.3339C143.419 62.3589 136.238 71.5663 127.741 72.9172Z" fill="#FAFAFA"/>
<path d="M129.163 30.4351C140.61 28.6221 149.533 38.0783 149.107 51.5517C148.645 64.9895 138.975 77.4319 127.564 79.2094C116.117 81.0224 107.158 71.5662 107.62 58.0928C107.158 71.5306 116.117 81.0224 127.564 79.2094C129.057 78.9605 130.301 77.3608 130.336 75.6544C130.408 73.9125 129.234 72.7038 127.777 72.9171C136.273 71.5662 143.454 62.3588 143.774 52.3693C144.094 42.3798 137.482 35.3765 128.986 36.7274C120.489 38.0783 113.308 47.2857 112.988 57.2752C113.308 47.2857 120.489 38.0783 128.986 36.7274C130.479 36.4786 131.723 34.9144 131.758 33.1724C131.794 31.4305 130.621 30.1862 129.163 30.4351Z" fill="#ACCFDF"/>
<path d="M129.163 30.4355C130.656 30.1867 131.794 31.4309 131.723 33.1729C131.652 34.9148 130.407 36.5145 128.95 36.7278C120.454 38.0787 113.272 47.2861 112.953 57.2756C112.633 67.2651 119.245 74.2684 127.741 72.9175C129.234 72.6686 130.372 73.9129 130.301 75.6548C130.23 77.3967 128.986 78.9965 127.528 79.2098C116.081 81.0228 107.122 71.5666 107.584 58.0932C108.047 44.6554 117.716 32.2486 129.163 30.4355Z" fill="#89B9CC"/>
<path d="M181.351 80.702C182.133 80.5598 182.773 81.2353 182.737 82.1596L182.595 86.2123C179.68 85.0391 176.8 84.4703 173.708 84.577C172.89 84.6125 172.037 84.6836 171.148 84.8258C169.086 85.1458 166.918 85.7857 164.571 86.7455L164.642 85.0036C164.678 84.0793 165.353 83.1905 166.135 83.0839L181.351 80.702Z" fill="#EEE5A5"/>
<path d="M164.606 130.152C164.322 130.188 164.038 130.152 163.824 130.01C164.073 130.152 164.357 130.188 164.713 130.152H164.606Z" fill="#89B9CC"/>
<path d="M216.9 121.869C216.794 121.904 216.687 121.904 216.58 121.869C216.723 121.869 216.865 121.868 217.007 121.833L216.9 121.869Z" fill="#89B9CC"/>
<path d="M236.369 93.5096L231.643 93.6852C231.643 93.6852 229.468 85.8821 228.593 83.9501C227.718 81.9931 225.717 79.0575 226.092 78.38C226.817 77.0502 230.143 81.692 230.143 81.692C230.143 81.692 230.593 70.7776 232.719 71.0035C235.819 71.3547 235.344 78.8568 235.244 85.2046C235.194 88.3409 236.369 93.5096 236.369 93.5096Z" fill="#E2AB86"/>
<path d="M217.466 93.6853L236.169 89.2944C236.169 89.2944 237.195 104.048 242.046 111.675C251.522 126.529 275.752 130.066 271.602 136.74C264.725 147.78 244.646 141.959 232.344 126.88C220.866 112.829 217.466 93.6853 217.466 93.6853Z" fill="#384C77"/>
<path d="M265.225 112.578C266.926 109.617 269.626 107.51 269.426 103.821C269.301 101.212 267.976 98.3264 265.95 96.6203C263.75 94.7385 261.124 93.9607 258.424 94.4123C249.222 95.9679 247.322 110.997 249.047 118.424C250.872 126.202 255.473 120.908 259.274 119.327C259.024 119.427 258.824 128.184 259.274 131.722C262.7 131.17 266.625 130.342 270.076 129.84C268.676 126.704 265.85 121.008 264.9 112.578" fill="#E2AB86"/>
<path d="M273.277 94.0865C273.277 94.0865 272.727 87.287 264.825 87.1866C260.399 87.1364 256.423 87.9895 253.773 91.3516C249.372 96.8966 252.023 98.4021 254.348 98.3519C256.824 98.2766 260.999 97.5741 261.274 100.836C261.55 104.098 259.624 108.739 259.624 108.739C259.624 108.739 263.8 102.893 266.075 106.481C268.376 110.069 262.4 112.302 262.4 112.302L265.7 117.998C265.7 117.998 271.452 115.539 273.552 113.707C276.803 110.872 281.279 101.764 278.203 97.0221C276.002 93.5596 273.277 94.0865 273.277 94.0865Z" fill="#3F2E0F"/>
<path d="M269.751 92.1802C269.751 92.1802 268.951 86.0079 271.177 84.101C273.377 82.1942 276.328 81.9182 279.653 82.8465C283.129 83.8 285.154 88.0653 283.679 91.0762C282.204 94.087 276.828 96.9223 276.828 96.9223L269.751 92.1802Z" fill="#3F2E0F"/>
<path d="M269.801 87.1865C269.801 87.1865 271.802 90.4483 273.377 92.0541C275.252 93.9359 278.928 95.642 278.928 95.642L278.203 96.9969C278.203 96.9969 274.377 95.4664 271.877 92.7064C269.376 89.9465 269.126 88.1149 269.126 88.1149L269.801 87.1865Z" fill="#BC4520"/>
<path d="M266.975 128.235C268.651 132.877 270.026 145.773 269.951 157.917C269.801 176.685 263.875 213.718 263.925 215.224C258.649 215.349 251.797 214.872 243.821 213.367C238.045 212.288 226.517 210.682 224.517 209.252C226.792 204.058 241.245 163.412 247.897 148.031C255.523 130.418 254.248 128.411 257.148 126.328C259.599 124.547 266.475 126.805 266.975 128.235Z" fill="#445A8E"/>
<path d="M289.73 252.231L298.832 258.153L301.957 253.762L291.98 246.436L289.73 252.231Z" fill="#E2AB86"/>
<path d="M231.768 261.339L229.618 272.028L234.819 273.333L237.97 261.339H231.768Z" fill="#E2AB86"/>
<path d="M243.921 187.498L231.368 262.393L257.724 263.472L273.727 187.498H243.921Z" fill="#A34D4D"/>
<path d="M247.497 187.498H273.727C273.727 187.498 266.4 223.227 269.376 228.822C275.877 232.56 293.481 247.188 293.481 247.188L285.354 265.454C285.354 265.454 267.101 258.278 251.497 249.221C245.421 239.536 247.497 187.498 247.497 187.498Z" fill="#BA5A5A"/>
<path d="M229.268 269.87C228.318 269.845 225.317 272.781 214.19 275.34C211.064 276.068 211.414 278.376 214.415 279.003L235.594 278.376C236.519 276.996 236.594 272.003 235.819 272.128C234.944 272.028 234.644 272.555 231.918 272.078C229.693 271.677 230.393 269.895 229.268 269.87Z" fill="#3D3E3F"/>
<path d="M295.507 256.297C294.932 257.074 295.657 261.214 291.481 271.878C290.306 274.889 292.406 275.867 294.631 273.759L306.109 255.895C305.484 254.34 301.433 251.454 301.108 252.157C300.508 252.834 300.783 253.361 298.857 255.343C297.232 256.974 296.157 255.393 295.507 256.297Z" fill="#3D3E3F"/>
<path d="M269.676 126.278C272.577 130.543 275.177 141.307 277.653 153.275C281.478 171.742 281.103 188.301 281.478 189.782C275.477 190.886 270.076 191.739 260.674 191.739C253.848 191.739 242.496 189.481 239.895 188.452C241.37 182.907 247.797 165.62 252.122 149.286C257.073 130.568 255.173 128.812 258.074 126.228C260.474 124.045 268.776 124.973 269.676 126.278Z" fill="#D39F0D"/>
<path d="M269.976 126.453C272.477 130.718 276.203 143.138 278.353 155.081C281.654 173.548 282.629 211.033 282.954 212.513C277.778 213.617 270.976 214.42 262.85 214.42C256.974 214.42 245.346 214.972 243.121 213.943C244.396 208.398 251.147 165.795 254.873 149.436C259.124 130.718 257.499 128.962 259.999 126.378C262.05 124.195 269.201 125.123 269.976 126.453Z" fill="#576DB2"/>
<path d="M274.602 150.013C268.726 144.845 265.475 135.386 262.75 129.389C263 134.733 267.1 144.393 271.026 150.741C276.377 159.322 279.353 166.874 280.028 168.003C279.978 167.652 278.828 153.727 274.602 150.013Z" fill="#3D5184"/>
<path d="M293.956 190.71C293.956 192.993 293.256 197.961 294.281 197.936C295.182 197.936 295.807 195.427 296.257 193.52C300.208 195.301 311.26 198.789 308.609 194.975C306.784 192.341 298.557 190.007 297.907 185.516C296.532 185.441 295.332 185.616 293.956 185.692C293.781 184.362 293.956 190.71 293.956 190.71Z" fill="#E2AB86"/>
<path d="M304.908 185.516L288.455 189.28C288.455 189.28 285.229 169.659 280.053 160.902C276.852 155.458 257.524 129.765 264.1 125.5C271.276 120.858 288.255 144.242 293.581 153.149C302.933 168.731 304.908 185.516 304.908 185.516Z" fill="#576DB2"/>
<path d="M369.327 216.654C375.583 216.654 380.654 211.583 380.654 205.327C380.654 199.071 375.583 194 369.327 194C363.071 194 358 199.071 358 205.327C358 211.583 363.071 216.654 369.327 216.654Z" fill="#86C528"/>
<path d="M365.511 204.965L368.53 208.008L373.143 202.623" stroke="white" stroke-width="3" stroke-miterlimit="10" stroke-linecap="round" stroke-linejoin="round"/>
</g>
<defs>
<clipPath id="clip0">
<rect width="417.477" height="300" fill="white"/>
</clipPath>
</defs>
</svg>
