<svg width="460" height="300" viewBox="0 0 460 300" fill="none" xmlns="http://www.w3.org/2000/svg">
<g clip-path="url(#clip0)">
<path d="M459.946 137.608C459.892 140.242 459.65 142.769 459.247 145.162C458.737 148.199 457.93 151.076 456.909 153.737C455.538 157.258 453.763 160.457 451.613 163.334C450.188 165.242 448.629 167.043 446.935 168.683C433.763 181.533 412.769 186.721 394.57 187.527C361.586 189.006 329.946 188.576 298.441 198.522C251.317 213.387 204.005 217.205 156.989 201.506C156.317 201.291 155.645 201.049 154.973 200.807C134.059 193.522 121.774 184.409 104.032 172.258C102.366 171.102 100.618 169.947 98.844 168.737C96.7204 167.312 94.3817 165.753 91.9354 164.14C80.0268 156.371 64.8924 147.205 52.0161 142.527C47.3118 140.807 42.9031 139.705 39.0859 139.49C23.387 138.602 12.3386 131.425 6.07519 121.586C-5.77965 102.957 -0.53771 74.7314 22.8494 61.1562C25.9677 59.3551 29.2741 57.8228 32.7419 56.5594C62.1773 45.8336 102.607 53.3336 130.081 53.0648C142.231 52.9572 152.769 50.7261 162.446 47.2583C189.193 37.6078 209.274 18.2529 238.199 6.55939C277.043 -9.13954 296.29 4.83896 325.645 30.0271C328.495 32.4734 331.344 34.7045 334.22 36.8013C340.941 41.6938 347.796 45.7261 354.758 49.2476C362.258 53.011 369.866 56.183 377.661 59.1669C388.575 63.3605 399.758 67.2045 411.29 71.8551C413.172 72.6078 415 73.4142 416.801 74.2207C424.919 77.9572 432.312 82.4196 438.602 87.8228C452.043 99.4626 460.376 115.35 459.946 137.608Z" fill="#E4F5FD"/>
<path d="M456.908 153.737C454.65 159.597 451.183 164.543 446.935 168.683C415.322 168.656 384.812 168.629 359.865 168.629H352.688C352.688 168.629 353.736 168.091 355.537 167.204C366.129 162.016 403.253 144.382 418.145 144.543C427.419 144.651 435.564 150.565 444.57 152.769C448.71 153.79 452.796 154.005 456.908 153.737Z" fill="white"/>
<path d="M263.629 200.833H155C132.124 192.849 119.543 182.688 98.871 168.763C96.7473 167.339 94.4086 165.779 91.9624 164.167C92.3387 164.301 92.7151 164.462 93.0646 164.597C93.3065 164.677 93.5484 164.785 93.7635 164.865C93.7904 164.865 93.8172 164.892 93.8172 164.892C94.1129 165 94.4355 165.107 94.7312 165.215C95.0538 165.322 95.3495 165.43 95.6721 165.537C96.1022 165.699 96.5592 165.833 97.0162 165.968C97.3656 166.075 97.7151 166.183 98.0645 166.29C98.5753 166.451 99.1129 166.586 99.6237 166.72C99.8925 166.801 100.188 166.855 100.457 166.935C100.995 167.07 101.532 167.204 102.07 167.312C103.145 167.554 104.247 167.742 105.349 167.903C106.29 168.037 107.231 168.145 108.199 168.226C118.36 169.086 128.602 166.801 138.844 166.505C141.828 166.425 144.866 166.559 147.903 166.989C148.306 167.043 148.71 167.097 149.113 167.177C149.462 167.231 149.812 167.312 150.188 167.365C150.376 167.392 150.565 167.446 150.753 167.473C150.968 167.527 151.183 167.554 151.398 167.607C151.559 167.634 151.72 167.688 151.882 167.715C152.07 167.769 152.258 167.796 152.446 167.849C152.634 167.903 152.823 167.957 153.011 167.984C153.199 168.037 153.387 168.091 153.548 168.145C153.925 168.253 154.301 168.36 154.651 168.468C154.812 168.521 155 168.575 155.161 168.629C155.269 168.683 155.403 168.71 155.511 168.763C155.645 168.817 155.78 168.844 155.887 168.898C155.995 168.925 156.102 168.978 156.21 169.005C156.371 169.059 156.532 169.113 156.667 169.193C156.774 169.22 156.855 169.274 156.962 169.301C157.097 169.355 157.231 169.408 157.366 169.462C157.661 169.597 157.984 169.731 158.28 169.865C158.495 169.946 158.683 170.054 158.898 170.161C158.925 170.188 158.979 170.188 159.005 170.215C159.22 170.296 159.409 170.403 159.624 170.511C160.054 170.726 160.484 170.968 160.914 171.21C161.344 171.451 161.747 171.693 162.151 171.962C162.366 172.097 162.554 172.231 162.742 172.365C162.93 172.5 163.145 172.634 163.333 172.796C163.737 173.091 164.167 173.414 164.543 173.763C164.597 173.817 164.677 173.871 164.731 173.925C164.893 174.059 165.054 174.193 165.188 174.328C165.35 174.489 165.511 174.623 165.672 174.785C165.833 174.919 165.968 175.08 166.129 175.242C166.29 175.403 166.452 175.591 166.613 175.753C166.747 175.914 166.882 176.048 167.016 176.21C167.043 176.236 167.07 176.263 167.097 176.29C167.177 176.398 167.285 176.505 167.366 176.613C167.419 176.667 167.473 176.747 167.527 176.801C167.661 176.962 167.769 177.123 167.903 177.285C168.011 177.419 168.118 177.58 168.226 177.715C168.253 177.769 168.306 177.822 168.333 177.876C168.441 178.037 168.575 178.226 168.683 178.387C168.898 178.71 169.113 179.059 169.328 179.408C169.543 179.758 169.731 180.107 169.919 180.457C171.156 182.634 172.285 184.865 174.194 186.425C176.048 187.957 178.387 188.71 180.699 189.355C197.097 194.086 263.629 200.833 263.629 200.833Z" fill="white"/>
<path d="M233.978 300C276.097 300 310.242 294.332 310.242 287.339C310.242 280.346 276.097 274.678 233.978 274.678C191.859 274.678 157.715 280.346 157.715 287.339C157.715 294.332 191.859 300 233.978 300Z" fill="#E4F5FD"/>
<path d="M243.279 228.037L247.177 263.145L258.575 262.688L258.924 226.397L243.279 228.037Z" fill="#D9B1AF"/>
<path d="M273.924 281.747C273.844 281.989 273.709 282.15 273.494 282.231C259.301 286.478 247.5 282.876 247.5 282.876L246.989 262.07L258.682 261.774L259.005 274.785C259.005 274.704 260.08 274.22 260.94 273.844C261.478 273.629 261.935 273.414 262.043 273.387C262.258 273.279 262.5 273.199 262.741 273.118C265.833 272.043 270.376 272.07 272.204 275.134C272.661 275.86 274.408 280.242 273.924 281.747Z" fill="#8C4E10"/>
<path d="M274.166 281.774L274.301 286.747C258.172 292.365 247.661 287.419 247.661 287.419L247.553 282.876C247.553 282.876 259.354 286.478 273.548 282.231C273.763 282.177 273.897 281.989 273.978 281.747L274.166 281.774Z" fill="#733E0A"/>
<path d="M258.79 265.027L258.844 267.392L256.129 267.473C255.484 267.5 254.946 266.962 254.919 266.317C254.892 265.672 255.403 265.134 256.075 265.107L258.79 265.027Z" fill="white"/>
<path d="M258.871 268.279L258.925 270.645L256.855 270.699C256.21 270.726 255.672 270.188 255.645 269.543C255.618 268.898 256.129 268.36 256.801 268.333L258.871 268.279Z" fill="white"/>
<path d="M257.527 271.559L258.952 271.532L259.006 273.898L257.581 273.925C256.936 273.952 256.398 273.414 256.371 272.769C256.344 272.124 256.882 271.586 257.527 271.559Z" fill="white"/>
<path d="M194.22 223.145L195.107 262.634L205.618 263.414L209.973 223.226L194.22 223.145Z" fill="#D9B1AF"/>
<path d="M206.559 281.424C206.935 282.231 207.903 284.811 207.795 288.736C207.795 288.924 207.768 289.086 207.768 289.274C207.742 289.731 207.715 290.215 207.661 290.725C207.634 290.994 207.5 291.263 207.311 291.505C206.747 292.123 205.457 293.333 203.44 293.682C201.908 293.951 199.139 293.897 196.962 293.79C195.242 293.709 193.682 293.01 192.768 291.908C192.553 291.666 192.446 291.371 192.419 291.075C192.392 290.752 192.392 290.215 192.392 289.569C192.392 289.516 192.392 289.462 192.392 289.408C192.446 287.231 192.795 283.817 194.381 281.451C194.57 281.182 194.677 280.887 194.623 280.564L193.091 261.801C193.01 260.86 194.005 260.053 195.268 260.08L205.887 260.188C206.182 260.188 206.478 260.242 206.747 260.322C207.527 260.591 208.064 261.209 207.984 261.908L206.397 280.806C206.451 281.021 206.478 281.236 206.559 281.424Z" fill="#8C4E10"/>
<path d="M218.924 168.71L218.01 177.339L217.499 182.231L216.801 188.817L212.016 234.22H192.016V163.172L212.473 167.365L218.924 168.71Z" fill="#4F7CB3"/>
<path d="M224.086 182.15L222.822 188.683C221.021 186.559 219.22 184.381 217.473 182.231L216.774 188.817L212.258 175.591L210.967 171.801L217.983 177.338L224.086 182.15Z" fill="black"/>
<path d="M259.623 203.199C261.075 209.893 261.317 228.172 261.344 234.597H240.645C240.645 234.597 239.946 212.527 238.575 209.758C237.742 208.091 231.371 198.844 222.822 188.71C221.021 186.586 219.22 184.409 217.473 182.258C215.645 180 213.871 177.769 212.258 175.618C210.591 173.414 209.086 171.317 207.849 169.409L212.446 167.393L236.129 156.989C236.156 156.962 258.494 198.065 259.623 203.199Z" fill="#4F7CB3"/>
<path d="M226.505 76.2632V90.0535H214.785V78.3331L226.505 76.2632Z" fill="#D9B1AF"/>
<path d="M210.645 59.7042C216.075 58.4676 216.855 50.0536 228.575 50.7256C240.296 51.4246 238.226 65.2149 231.344 74.8655C224.436 84.516 223.065 81.7741 214.785 81.7741C206.505 81.7741 195.457 63.1719 210.645 59.7042Z" fill="#1E235E"/>
<path d="M274.462 275.699L277.446 275.726L278.736 159.516C278.736 158.683 278.091 158.011 277.258 158.011C276.881 158.011 276.559 158.145 276.29 158.36C275.967 158.629 275.752 159.059 275.752 159.516L274.462 275.699Z" fill="#C47E1B"/>
<path d="M280.806 277.231C280.806 277.93 279.327 278.495 277.284 278.656C276.854 278.683 276.397 278.71 275.913 278.71C275.456 278.71 274.999 278.683 274.596 278.656C272.553 278.468 271.075 277.876 271.075 277.204C271.075 276.371 273.279 275.699 275.967 275.726C278.655 275.699 280.806 276.398 280.806 277.231Z" fill="#C47E1B"/>
<path d="M277.284 278.656L276.048 284.758L274.596 278.656C275.026 278.683 275.456 278.71 275.913 278.71C276.397 278.71 276.854 278.683 277.284 278.656Z" fill="#C47E1B"/>
<path d="M266.505 158.36C266.505 158.36 272.016 161.801 274.086 162.5C276.156 163.199 280.995 159.059 282.366 162.5C283.737 165.941 280.296 173.548 274.086 171.478C267.876 169.408 263.038 165.268 263.038 165.268L266.505 158.36Z" fill="#D9B1AF"/>
<path d="M268.575 158.36L263.064 167.338C263.064 167.338 261.156 167.446 258.091 166.72C253.145 165.564 245.215 162.231 237.554 152.849C225.134 137.661 238.925 99.0589 238.925 99.0589C243.763 96.2901 249.973 99.7578 249.274 133.548C249.274 142.527 249.274 142.527 249.274 142.527L263.629 154.301L268.575 158.36Z" fill="#D64644"/>
<path d="M194.086 96.9619C194.086 96.9619 182.365 125.242 178.898 140.43C177.527 145.94 189.946 154.22 189.946 154.22C189.946 154.22 200.994 97.6608 194.086 96.9619Z" fill="#D64644"/>
<path d="M238.925 101.102C238.925 101.102 237.554 111.452 237.554 126.613C237.554 141.774 243.763 153.521 238.253 163.871C232.742 174.22 191.344 172.849 187.903 161.801C184.462 150.753 188.602 107.312 194.812 99.0322H238.951V101.102H238.925Z" fill="#3D4687"/>
<path d="M232.715 135.591V152.5C232.715 154.704 231.882 156.747 230.511 158.253C228.925 160 226.64 161.102 224.086 161.102H202.258C196.586 161.102 191.989 156.505 191.989 150.833V135.564H232.715V135.591Z" fill="#FED0D0"/>
<path d="M192.715 135.94H232.715V140.295C232.715 144.596 229.597 148.575 224.516 151.236C222.177 152.473 219.408 153.414 216.317 154.005C212.204 154.784 207.769 154.65 203.79 153.655C196.344 151.774 191.64 147.177 192.123 142.204L192.715 135.94Z" fill="#D64644"/>
<path d="M238.924 99.0322C238.924 99.0322 238.091 100.995 237.096 103.978C235.887 107.607 234.489 112.742 234.112 117.661C233.413 126.613 225.806 131.452 209.274 131.452C200 131.452 192.903 129.731 190.483 123.468C188.602 118.548 189.623 110.86 194.784 99.0322H238.924Z" fill="#D64644"/>
<path d="M210.645 156.989C211.521 156.989 212.231 155.75 212.231 154.22C212.231 152.691 211.521 151.452 210.645 151.452C209.769 151.452 209.059 152.691 209.059 154.22C209.059 155.75 209.769 156.989 210.645 156.989Z" fill="#E8E9F0"/>
<path d="M237.124 103.172H197.285C193.629 103.172 190.645 100.188 190.645 96.5319V92.5534C190.645 88.8974 193.629 85.9136 197.285 85.9136H237.124C238.951 85.9136 240.591 86.6394 241.801 87.8491C243.011 89.0587 243.763 90.7254 243.763 92.5534V96.5319C243.763 100.188 240.779 103.172 237.124 103.172Z" fill="#434E90"/>
<path d="M241.801 87.8491C240.699 86.7469 239.193 86.048 237.554 85.9405V85.9136H237.285C233.629 85.9136 230.645 88.8974 230.645 92.5534V96.5319C230.645 100.188 233.629 103.172 237.285 103.172H237.554V103.145C241.021 102.93 243.763 100.053 243.763 96.5319V92.5534C243.763 90.7254 243.011 89.0587 241.801 87.8491Z" fill="#9EA5C3"/>
<path d="M207.822 288.387C207.822 288.575 207.795 288.764 207.795 288.979C207.768 289.462 207.742 290 207.688 290.511C207.661 290.807 207.526 291.102 207.338 291.344C206.774 292.016 205.483 293.307 203.467 293.683C201.935 293.979 199.166 293.898 196.989 293.79C195.268 293.71 193.709 292.957 192.795 291.774C192.58 291.505 192.473 291.183 192.446 290.887C192.419 290.538 192.419 289.973 192.419 289.274C192.419 289.221 192.419 289.167 192.419 289.086C193.521 290.054 195.967 291.452 200.645 291.075C203.333 290.86 205.779 289.704 207.822 288.387Z" fill="#733E0A"/>
<path d="M268.575 158.36L263.064 167.338C263.064 167.338 261.156 167.446 258.091 166.72L263.629 154.301L268.575 158.36Z" fill="#D44745"/>
<path d="M357.178 264.812C359.355 263.038 360.807 260.538 361.586 257.85C362.151 255.834 362.232 253.791 361.936 251.721C361.506 248.764 360.027 246.049 361.667 243.145C362.715 241.29 364.705 239.946 365.108 237.877C365.457 235.995 364.382 234.382 363.602 232.769C362.662 230.833 361.909 228.817 361.371 226.747C360.968 225.215 361.076 221.855 359.49 220.995C357.554 219.946 355.188 221.022 353.683 222.339C351.506 224.274 351.237 226.801 352.205 229.409C352.662 230.672 353.253 231.936 353.226 233.28C353.199 235.135 352.043 236.613 350.753 237.85C348.145 240.323 345.914 242.124 346.264 246.049C346.559 249.409 347.393 252.581 347.312 255.968C347.151 262.984 345.43 265.484 347.151 267.016C349.248 268.898 354.248 267.178 357.178 264.812Z" fill="#A3C1A6"/>
<path d="M352.796 263.844C352.796 263.844 353.387 245.753 356.049 239.785C358.71 233.817 356.452 229.113 356.452 229.113" stroke="white" stroke-width="0.5" stroke-miterlimit="10" stroke-linecap="round" stroke-linejoin="round"/>
<path d="M345.323 280.161C341.613 278.468 338.683 275.511 336.64 272.043C335.108 269.435 334.248 266.586 333.952 263.602C333.495 259.301 334.57 254.946 331.237 251.532C329.086 249.328 325.834 248.172 324.516 245.403C323.334 242.903 324.274 240.269 324.785 237.715C325.377 234.677 325.699 231.586 325.726 228.494C325.726 226.209 324.355 221.532 326.291 219.758C328.629 217.58 332.312 218.226 334.893 219.543C338.629 221.451 339.92 224.865 339.516 228.898C339.328 230.833 338.979 232.822 339.489 234.704C340.188 237.312 342.339 238.951 344.597 240.215C349.113 242.715 352.93 244.435 353.844 250.054C354.624 254.839 354.624 259.597 355.968 264.301C358.737 274.059 362.043 276.935 360.215 279.677C357.903 283.011 350.296 282.419 345.323 280.161Z" fill="#6E906A"/>
<path d="M351.102 277.231C351.102 277.231 343.71 252.124 337.823 244.758C331.909 237.366 333.387 230 333.387 230" stroke="white" stroke-width="0.5" stroke-miterlimit="10" stroke-linecap="round" stroke-linejoin="round"/>
<path d="M361.613 280.483C364.651 279.112 367.043 276.666 368.737 273.817C370 271.693 370.699 269.354 370.941 266.881C371.317 263.36 370.43 259.811 373.172 256.989C374.919 255.188 377.608 254.22 378.683 251.962C379.651 249.919 378.871 247.741 378.468 245.672C377.984 243.172 377.715 240.645 377.715 238.118C377.715 236.236 378.844 232.419 377.258 230.94C375.35 229.166 372.312 229.704 370.215 230.779C367.151 232.338 366.075 235.161 366.425 238.467C366.586 240.053 366.855 241.666 366.452 243.225C365.887 245.349 364.113 246.72 362.258 247.741C358.549 249.811 355.43 251.209 354.678 255.806C354.032 259.731 354.032 263.629 352.93 267.5C350.672 275.483 347.957 277.849 349.463 280.107C351.317 282.822 357.554 282.338 361.613 280.483Z" fill="#A3C1A6"/>
<path d="M356.882 278.092C356.882 278.092 362.93 257.527 367.769 251.479C372.608 245.43 371.398 239.382 371.398 239.382" stroke="white" stroke-width="0.5" stroke-miterlimit="10" stroke-linecap="round" stroke-linejoin="round"/>
<path d="M324.248 290.027L383.145 289.381C383.145 289.381 380.135 271.021 368.038 273.548C355.968 276.075 350.672 276.72 342.366 272.285C334.059 267.876 326.506 276.747 324.248 290.027Z" fill="#DDEDF2"/>
</g>
<defs>
<clipPath id="clip0">
<rect width="459.973" height="300" fill="white"/>
</clipPath>
</defs>
</svg>
