<?xml version="1.0" encoding="UTF-8" standalone="no"?>
<!DOCTYPE svg PUBLIC "-//W3C//DTD SVG 1.1//EN"
 "http://www.w3.org/Graphics/SVG/1.1/DTD/svg11.dtd">
<!-- Generated by graphviz version 2.42.3 (0)
 -->
<!-- Title: %3 Pages: 1 -->
<svg width="2552pt" height="315pt"
 viewBox="0.00 0.00 2552.00 315.00" xmlns="http://www.w3.org/2000/svg" xmlns:xlink="http://www.w3.org/1999/xlink">
<g id="graph0" class="graph" transform="scale(1 1) rotate(0) translate(4 311)">
<title>%3</title>
<polygon fill="white" stroke="transparent" points="-4,4 -4,-311 2548,-311 2548,4 -4,4"/>
<g id="clust1" class="cluster">
<title>cluster_0</title>
<polygon fill="none" stroke="black" points="974,-224 974,-299 1727,-299 1727,-224 974,-224"/>
<text text-anchor="middle" x="1350.5" y="-283.8" font-family="Times,serif" font-size="14.00">View</text>
</g>
<g id="clust2" class="cluster">
<title>cluster_1</title>
<polygon fill="none" stroke="black" points="1842,-224 1842,-299 2250,-299 2250,-224 1842,-224"/>
<text text-anchor="middle" x="2046" y="-283.8" font-family="Times,serif" font-size="14.00">Agent</text>
</g>
<g id="clust3" class="cluster">
<title>cluster_2</title>
<polygon fill="none" stroke="black" points="1877,-116 1877,-191 2061,-191 2061,-116 1877,-116"/>
<text text-anchor="middle" x="1969" y="-175.8" font-family="Times,serif" font-size="14.00">Connections</text>
</g>
<g id="clust4" class="cluster">
<title>cluster_3</title>
<polygon fill="none" stroke="black" points="2150,-116 2150,-191 2326,-191 2326,-116 2150,-116"/>
<text text-anchor="middle" x="2238" y="-175.8" font-family="Times,serif" font-size="14.00">Postfix MTA (external)</text>
</g>
<g id="clust5" class="cluster">
<title>cluster_4</title>
<polygon fill="none" stroke="black" points="8,-8 8,-299 691,-299 691,-8 8,-8"/>
<text text-anchor="middle" x="349.5" y="-283.8" font-family="Times,serif" font-size="14.00">Core</text>
</g>
<g id="clust6" class="cluster">
<title>cluster_5</title>
<polygon fill="none" stroke="black" points="747,-8 747,-83 1609,-83 1609,-8 747,-8"/>
<text text-anchor="middle" x="1178" y="-67.8" font-family="Times,serif" font-size="14.00">Internet</text>
</g>
<g id="clust7" class="cluster">
<title>cluster_6</title>
<polygon fill="none" stroke="black" points="748,-116 748,-191 958,-191 958,-116 748,-116"/>
<text text-anchor="middle" x="853" y="-175.8" font-family="Times,serif" font-size="14.00">Notification</text>
</g>
<g id="clust8" class="cluster">
<title>cluster_7</title>
<polygon fill="none" stroke="black" points="2258,-224 2258,-299 2536,-299 2536,-224 2258,-224"/>
<text text-anchor="middle" x="2397" y="-283.8" font-family="Times,serif" font-size="14.00">Auth</text>
</g>
<g id="clust9" class="cluster">
<title>cluster_8</title>
<polygon fill="none" stroke="black" points="1369,-116 1369,-191 1557,-191 1557,-116 1369,-116"/>
<text text-anchor="middle" x="1463" y="-175.8" font-family="Times,serif" font-size="14.00">Feedback</text>
</g>
<!-- InsightsViewer -->
<g id="node1" class="node">
<title>InsightsViewer</title>
<ellipse fill="none" stroke="black" cx="1063" cy="-250" rx="80.69" ry="18"/>
<text text-anchor="middle" x="1063" y="-246.3" font-family="Times,serif" font-size="14.00">InsightsViewer</text>
</g>
<!-- InsightsBase -->
<g id="node9" class="node">
<title>InsightsBase</title>
<ellipse fill="none" stroke="black" cx="382" cy="-142" rx="70.69" ry="18"/>
<text text-anchor="middle" x="382" y="-138.3" font-family="Times,serif" font-size="14.00">InsightsBase</text>
</g>
<!-- InsightsViewer&#45;&gt;InsightsBase -->
<g id="edge11" class="edge">
<title>InsightsViewer&#45;&gt;InsightsBase</title>
<path fill="none" stroke="black" d="M1040.12,-232.48C1022.26,-220.64 996.32,-205.65 971,-199 916.29,-184.64 516.39,-206.53 462,-191 443.68,-185.77 425.32,-175.22 410.81,-165.34"/>
<polygon fill="black" stroke="black" points="412.49,-162.24 402.31,-159.32 408.45,-167.95 412.49,-162.24"/>
<text text-anchor="middle" x="1083.5" y="-202.8" font-family="Times,serif" font-size="14.00">Sub for new Insights</text>
</g>
<!-- RawDataViwer -->
<g id="node2" class="node">
<title>RawDataViwer</title>
<ellipse fill="none" stroke="black" cx="1640" cy="-250" rx="79.09" ry="18"/>
<text text-anchor="middle" x="1640" y="-246.3" font-family="Times,serif" font-size="14.00">RawDataViwer</text>
</g>
<!-- RawDataSocket -->
<g id="node7" class="node">
<title>RawDataSocket</title>
<ellipse fill="none" stroke="black" cx="1969" cy="-142" rx="83.69" ry="18"/>
<text text-anchor="middle" x="1969" y="-138.3" font-family="Times,serif" font-size="14.00">RawDataSocket</text>
</g>
<!-- RawDataViwer&#45;&gt;RawDataSocket -->
<g id="edge3" class="edge">
<title>RawDataViwer&#45;&gt;RawDataSocket</title>
<path fill="none" stroke="black" d="M1621.7,-232.08C1612.78,-221.8 1605.61,-208.82 1614,-199 1647.05,-160.33 1782.02,-148.2 1875.67,-144.49"/>
<polygon fill="black" stroke="black" points="1875.87,-147.99 1885.73,-144.12 1875.61,-140.99 1875.87,-147.99"/>
<text text-anchor="middle" x="1674.5" y="-202.8" font-family="Times,serif" font-size="14.00">Sub to Raw Data</text>
</g>
<!-- NotificationsViewer -->
<g id="node3" class="node">
<title>NotificationsViewer</title>
<ellipse fill="none" stroke="black" cx="1264" cy="-250" rx="102.08" ry="18"/>
<text text-anchor="middle" x="1264" y="-246.3" font-family="Times,serif" font-size="14.00">NotificationsViewer</text>
</g>
<!-- NotificationCenter -->
<g id="node18" class="node">
<title>NotificationCenter</title>
<ellipse fill="none" stroke="black" cx="853" cy="-142" rx="96.68" ry="18"/>
<text text-anchor="middle" x="853" y="-138.3" font-family="Times,serif" font-size="14.00">NotificationCenter</text>
</g>
<!-- NotificationsViewer&#45;&gt;NotificationCenter -->
<g id="edge12" class="edge">
<title>NotificationsViewer&#45;&gt;NotificationCenter</title>
<path fill="none" stroke="black" d="M1261.21,-231.58C1258.4,-220.27 1252.86,-206.31 1242,-199 1229.32,-190.46 981.94,-194.24 967,-191 941.04,-185.36 913.55,-173.97 892.07,-163.69"/>
<polygon fill="black" stroke="black" points="893.48,-160.48 882.96,-159.23 890.4,-166.77 893.48,-160.48"/>
<text text-anchor="middle" x="1343" y="-202.8" font-family="Times,serif" font-size="14.00">Sub to new Notifications</text>
</g>
<!-- FeedbackForm -->
<g id="node4" class="node">
<title>FeedbackForm</title>
<ellipse fill="none" stroke="black" cx="1463" cy="-250" rx="79.09" ry="18"/>
<text text-anchor="middle" x="1463" y="-246.3" font-family="Times,serif" font-size="14.00">FeedbackForm</text>
</g>
<!-- FeedbackCenter -->
<g id="node20" class="node">
<title>FeedbackCenter</title>
<ellipse fill="none" stroke="black" cx="1463" cy="-142" rx="86.38" ry="18"/>
<text text-anchor="middle" x="1463" y="-138.3" font-family="Times,serif" font-size="14.00">FeedbackCenter</text>
</g>
<!-- FeedbackForm&#45;&gt;FeedbackCenter -->
<g id="edge13" class="edge">
<title>FeedbackForm&#45;&gt;FeedbackCenter</title>
<path fill="none" stroke="black" d="M1463,-231.97C1463,-215.38 1463,-189.88 1463,-170.43"/>
<polygon fill="black" stroke="black" points="1466.5,-170.34 1463,-160.34 1459.5,-170.34 1466.5,-170.34"/>
<text text-anchor="middle" x="1513" y="-202.8" font-family="Times,serif" font-size="14.00">Pub Feedback</text>
</g>
<!-- PostfixAgentDriver -->
<g id="node5" class="node">
<title>PostfixAgentDriver</title>
<ellipse fill="none" stroke="black" cx="2143" cy="-250" rx="98.58" ry="18"/>
<text text-anchor="middle" x="2143" y="-246.3" font-family="Times,serif" font-size="14.00">PostfixAgentDriver</text>
</g>
<!-- PostfixAgentDriver&#45;&gt;RawDataSocket -->
<g id="edge1" class="edge">
<title>PostfixAgentDriver&#45;&gt;RawDataSocket</title>
<path fill="none" stroke="black" d="M2123.19,-232.26C2110.66,-222.04 2093.87,-209.06 2078,-199 2057.12,-185.76 2032.74,-173 2012.34,-163.02"/>
<polygon fill="black" stroke="black" points="2013.79,-159.83 2003.27,-158.63 2010.75,-166.13 2013.79,-159.83"/>
<text text-anchor="middle" x="2149" y="-202.8" font-family="Times,serif" font-size="14.00">Pub Raw Data</text>
</g>
<!-- PostfixLogs -->
<g id="node8" class="node">
<title>PostfixLogs</title>
<ellipse fill="none" stroke="black" cx="2238" cy="-142" rx="63.89" ry="18"/>
<text text-anchor="middle" x="2238" y="-138.3" font-family="Times,serif" font-size="14.00">PostfixLogs</text>
</g>
<!-- PostfixAgentDriver&#45;&gt;PostfixLogs -->
<g id="edge2" class="edge">
<title>PostfixAgentDriver&#45;&gt;PostfixLogs</title>
<path fill="none" stroke="black" d="M2189.03,-234C2199.02,-228.96 2208.74,-222.41 2216,-214 2226.59,-201.74 2232.08,-184.43 2234.93,-169.97"/>
<polygon fill="black" stroke="black" points="2238.39,-170.5 2236.57,-160.06 2231.48,-169.35 2238.39,-170.5"/>
<text text-anchor="middle" x="2302" y="-202.8" font-family="Times,serif" font-size="14.00">Read Lines from Logs</text>
</g>
<!-- PostfixProcessor -->
<g id="node6" class="node">
<title>PostfixProcessor</title>
<ellipse fill="none" stroke="black" cx="1938" cy="-250" rx="87.99" ry="18"/>
<text text-anchor="middle" x="1938" y="-246.3" font-family="Times,serif" font-size="14.00">PostfixProcessor</text>
</g>
<!-- PostfixProcessor&#45;&gt;RawDataSocket -->
<g id="edge4" class="edge">
<title>PostfixProcessor&#45;&gt;RawDataSocket</title>
<path fill="none" stroke="black" d="M1942.98,-231.97C1947.88,-215.2 1955.45,-189.34 1961.16,-169.81"/>
<polygon fill="black" stroke="black" points="1964.58,-170.57 1964.03,-159.99 1957.87,-168.6 1964.58,-170.57"/>
<text text-anchor="middle" x="2013.5" y="-202.8" font-family="Times,serif" font-size="14.00">Sub to Raw Data</text>
</g>
<!-- MTAEventsCollector -->
<g id="node14" class="node">
<title>MTAEventsCollector</title>
<ellipse fill="none" stroke="black" cx="577" cy="-142" rx="105.88" ry="18"/>
<text text-anchor="middle" x="577" y="-138.3" font-family="Times,serif" font-size="14.00">MTAEventsCollector</text>
</g>
<!-- PostfixProcessor&#45;&gt;MTAEventsCollector -->
<g id="edge5" class="edge">
<title>PostfixProcessor&#45;&gt;MTAEventsCollector</title>
<path fill="none" stroke="black" d="M1860.12,-241.51C1827.05,-236.45 1788.68,-228.01 1756,-214 1745.46,-209.48 1745.91,-202.54 1735,-199 1682.64,-181.99 798.49,-198.9 744,-191 704.63,-185.29 661.52,-172.73 628.95,-161.89"/>
<polygon fill="black" stroke="black" points="629.8,-158.48 619.2,-158.59 627.55,-165.11 629.8,-158.48"/>
<text text-anchor="middle" x="1850.5" y="-202.8" font-family="Times,serif" font-size="14.00">Pub Postfix Status Entries</text>
</g>
<!-- Database -->
<g id="node10" class="node">
<title>Database</title>
<ellipse fill="none" stroke="black" cx="496" cy="-34" rx="83.39" ry="18"/>
<text text-anchor="middle" x="496" y="-30.3" font-family="Times,serif" font-size="14.00">Mail Events DB</text>
</g>
<!-- InsightsBase&#45;&gt;Database -->
<g id="edge18" class="edge">
<title>InsightsBase&#45;&gt;Database</title>
<path fill="none" stroke="black" d="M399.81,-124.44C418.78,-106.81 448.95,-78.75 470.45,-58.76"/>
<polygon fill="black" stroke="black" points="473,-61.17 477.94,-51.8 468.23,-56.04 473,-61.17"/>
<text text-anchor="middle" x="476" y="-94.8" font-family="Times,serif" font-size="14.00">Sub events</text>
</g>
<!-- IntelCenter -->
<g id="node11" class="node">
<title>IntelCenter</title>
<ellipse fill="none" stroke="black" cx="116" cy="-250" rx="63.89" ry="18"/>
<text text-anchor="middle" x="116" y="-246.3" font-family="Times,serif" font-size="14.00">IntelCenter</text>
</g>
<!-- IntelCenter&#45;&gt;InsightsBase -->
<g id="edge6" class="edge">
<title>IntelCenter&#45;&gt;InsightsBase</title>
<path fill="none" stroke="black" d="M77.49,-235.39C57.65,-226.26 39.9,-213.33 52,-199 83.33,-161.9 214.41,-149.37 301.64,-145.15"/>
<polygon fill="black" stroke="black" points="301.95,-148.64 311.78,-144.68 301.63,-141.64 301.95,-148.64"/>
<text text-anchor="middle" x="162" y="-202.8" font-family="Times,serif" font-size="14.00">Sub to new incoming MTA Info</text>
</g>
<!-- IntelCenter&#45;&gt;NotificationCenter -->
<g id="edge7" class="edge">
<title>IntelCenter&#45;&gt;NotificationCenter</title>
<path fill="none" stroke="black" d="M153.05,-235.34C166.95,-230.85 183.01,-226.39 198,-224 251.34,-215.49 633.16,-232.24 684,-214 694.13,-210.37 693.63,-204.28 703,-199 731.17,-183.14 764.7,-170.13 792.9,-160.66"/>
<polygon fill="black" stroke="black" points="794.24,-163.91 802.64,-157.46 792.05,-157.26 794.24,-163.91"/>
<text text-anchor="middle" x="765" y="-202.8" font-family="Times,serif" font-size="14.00">Pub new Insignts</text>
</g>
<!-- InsightsGenerator -->
<g id="node12" class="node">
<title>InsightsGenerator</title>
<ellipse fill="none" stroke="black" cx="303" cy="-250" rx="95.58" ry="18"/>
<text text-anchor="middle" x="303" y="-246.3" font-family="Times,serif" font-size="14.00">InsightsGenerator</text>
</g>
<!-- InsightsGenerator&#45;&gt;InsightsBase -->
<g id="edge17" class="edge">
<title>InsightsGenerator&#45;&gt;InsightsBase</title>
<path fill="none" stroke="black" d="M285.72,-232C277.88,-222.17 271.63,-209.67 278,-199 288.79,-180.93 307.66,-168.34 326.38,-159.75"/>
<polygon fill="black" stroke="black" points="327.99,-162.87 335.82,-155.73 325.24,-156.43 327.99,-162.87"/>
<text text-anchor="middle" x="323.5" y="-202.8" font-family="Times,serif" font-size="14.00">Pub Insights</text>
</g>
<!-- InsightsGenerator&#45;&gt;NotificationCenter -->
<g id="edge16" class="edge">
<title>InsightsGenerator&#45;&gt;NotificationCenter</title>
<path fill="none" stroke="black" d="M361.38,-235.74C383.95,-231.18 410.06,-226.57 434,-224 455.94,-221.65 813.41,-227.31 831,-214 844.38,-203.88 849.84,-185.73 851.98,-170.31"/>
<polygon fill="black" stroke="black" points="855.48,-170.51 852.99,-160.21 848.51,-169.81 855.48,-170.51"/>
<text text-anchor="middle" x="905" y="-202.8" font-family="Times,serif" font-size="14.00">Pub new insights</text>
</g>
<!-- ExternalInsightsCenter -->
<g id="node13" class="node">
<title>ExternalInsightsCenter</title>
<ellipse fill="none" stroke="black" cx="563" cy="-250" rx="120.48" ry="18"/>
<text text-anchor="middle" x="563" y="-246.3" font-family="Times,serif" font-size="14.00">ExternalInsightsCenter</text>
</g>
<!-- ExternalInsightsCenter&#45;&gt;InsightsBase -->
<g id="edge8" class="edge">
<title>ExternalInsightsCenter&#45;&gt;InsightsBase</title>
<path fill="none" stroke="black" d="M481.52,-236.64C440.73,-229.68 398.59,-221.01 392,-214 381.23,-202.54 378.65,-185.1 378.81,-170.37"/>
<polygon fill="black" stroke="black" points="382.31,-170.42 379.32,-160.25 375.32,-170.06 382.31,-170.42"/>
<text text-anchor="middle" x="538" y="-202.8" font-family="Times,serif" font-size="14.00">Pub Insights from LM.io and Community</text>
</g>
<!-- LightMeterInsightsSource -->
<g id="node15" class="node">
<title>LightMeterInsightsSource</title>
<ellipse fill="none" stroke="black" cx="888" cy="-34" rx="133.48" ry="18"/>
<text text-anchor="middle" x="888" y="-30.3" font-family="Times,serif" font-size="14.00">LightMeterInsightsSource</text>
</g>
<!-- ExternalInsightsCenter&#45;&gt;LightMeterInsightsSource -->
<g id="edge9" class="edge">
<title>ExternalInsightsCenter&#45;&gt;LightMeterInsightsSource</title>
<path fill="none" stroke="black" d="M681.6,-246.83C795.02,-243.5 951.64,-235.1 971,-214 1013.45,-167.75 952.58,-95.97 914.56,-58.93"/>
<polygon fill="black" stroke="black" points="916.95,-56.37 907.3,-52 912.12,-61.44 916.95,-56.37"/>
<text text-anchor="middle" x="1022.5" y="-138.3" font-family="Times,serif" font-size="14.00">Sub News</text>
</g>
<!-- CommunityInsightsSource -->
<g id="node16" class="node">
<title>CommunityInsightsSource</title>
<ellipse fill="none" stroke="black" cx="1173" cy="-34" rx="133.78" ry="18"/>
<text text-anchor="middle" x="1173" y="-30.3" font-family="Times,serif" font-size="14.00">CommunityInsightsSource</text>
</g>
<!-- ExternalInsightsCenter&#45;&gt;CommunityInsightsSource -->
<g id="edge10" class="edge">
<title>ExternalInsightsCenter&#45;&gt;CommunityInsightsSource</title>
<path fill="none" stroke="black" d="M682.94,-248.41C811.29,-245.49 1004.39,-233.82 1063,-191 1109.96,-156.69 1144.23,-96.11 1161.14,-61.4"/>
<polygon fill="black" stroke="black" points="1164.32,-62.87 1165.45,-52.34 1157.99,-59.87 1164.32,-62.87"/>
<text text-anchor="middle" x="1210" y="-138.3" font-family="Times,serif" font-size="14.00">Sub Community News</text>
</g>
<!-- MTAEventsCollector&#45;&gt;Database -->
<g id="edge15" class="edge">
<title>MTAEventsCollector&#45;&gt;Database</title>
<path fill="none" stroke="black" d="M563.99,-123.97C550.76,-106.66 530.13,-79.66 515.06,-59.94"/>
<polygon fill="black" stroke="black" points="517.83,-57.81 508.98,-51.99 512.27,-62.06 517.83,-57.81"/>
<text text-anchor="middle" x="606" y="-94.8" font-family="Times,serif" font-size="14.00">Pub new events</text>
</g>
<!-- LightMeterFeedbackServer -->
<g id="node17" class="node">
<title>LightMeterFeedbackServer</title>
<ellipse fill="none" stroke="black" cx="1463" cy="-34" rx="138.38" ry="18"/>
<text text-anchor="middle" x="1463" y="-30.3" font-family="Times,serif" font-size="14.00">LightMeterFeedbackServer</text>
</g>
<!-- UserManagement -->
<g id="node19" class="node">
<title>UserManagement</title>
<ellipse fill="none" stroke="black" cx="2397" cy="-250" rx="130.78" ry="18"/>
<text text-anchor="middle" x="2397" y="-246.3" font-family="Times,serif" font-size="14.00">TODO: User Management</text>
</g>
<!-- FeedbackCenter&#45;&gt;LightMeterFeedbackServer -->
<g id="edge14" class="edge">
<title>FeedbackCenter&#45;&gt;LightMeterFeedbackServer</title>
<path fill="none" stroke="black" d="M1463,-123.97C1463,-107.38 1463,-81.88 1463,-62.43"/>
<polygon fill="black" stroke="black" points="1466.5,-62.34 1463,-52.34 1459.5,-62.34 1466.5,-62.34"/>
</g>
</g>
</svg>
